<svg version="1.1" viewBox="0.0 0.0 229.83464566929135 144.48293963254594" fill="none" stroke="none" stroke-linecap="square" stroke-miterlimit="10" xmlns:xlink="http://www.w3.org/1999/xlink" xmlns="http://www.w3.org/2000/svg"><clipPath id="p.0"><path d="m0 0l229.83464 0l0 144.48294l-229.83464 0l0 -144.48294z" clip-rule="nonzero"/></clipPath><g clip-path="url(#p.0)"><path fill="#000000" fill-opacity="0.0" d="m0 0l229.83464 0l0 144.48294l-229.83464 0z" fill-rule="evenodd"/><path fill="#000000" d="m21.112862 19.055119l91.65354 52.992123l-91.65354 52.992126z" fill-rule="evenodd"/><path stroke="#00ff00" stroke-width="3.0" stroke-linejoin="round" stroke-linecap="butt" d="m21.112862 19.055119l91.65354 52.992123l-91.65354 52.992126z" fill-rule="evenodd"/><path fill="#000000" d="m204.41995 125.03937l-91.65355 -52.992126l91.65355 -52.992123z" fill-rule="evenodd"/><path stroke="#00ff00" stroke-width="3.0" stroke-linejoin="round" stroke-linecap="butt" d="m204.41995 125.03937l-91.65355 -52.992126l91.65355 -52.992123z" fill-rule="evenodd"/><path fill="#000000" d="m60.24672 72.04724l0 0c0 -29.266739 23.72538 -52.992123 52.992126 -52.992123l0 0c14.054382 0 27.533142 5.583082 37.471085 15.521034c9.937958 9.93795 15.521042 23.416706 15.521042 37.47109l0 0c0 29.266747 -23.725388 52.992126 -52.992126 52.992126l0 0c-29.266747 0 -52.992126 -23.72538 -52.992126 -52.992126z" fill-rule="evenodd"/><path stroke="#00ff00" stroke-width="3.0" stroke-linejoin="round" stroke-linecap="butt" d="m60.24672 72.04724l0 0c0 -29.266739 23.72538 -52.992123 52.992126 -52.992123l0 0c14.054382 0 27.533142 5.583082 37.471085 15.521034c9.937958 9.93795 15.521042 23.416706 15.521042 37.47109l0 0c0 29.266747 -23.725388 52.992126 -52.992126 52.992126l0 0c-29.266747 0 -52.992126 -23.72538 -52.992126 -52.992126z" fill-rule="evenodd"/></g></svg>