<?xml version="1.0" encoding="UTF-8"?>
<svg id="Layer_1" xmlns="http://www.w3.org/2000/svg" version="1.1" viewBox="0 0 1600 1341.77">
  <!-- Generator: Adobe Illustrator 29.8.4, SVG Export Plug-In . SVG Version: 2.1.1 Build 6)  -->
  <defs>
    <style>
      .st0, .st1, .st2, .st3, .st4, .st5 {
        isolation: isolate;
      }

      .st0, .st1, .st3, .st4, .st5 {
        font-family: ArialMT, Arial;
      }

      .st0, .st4 {
        font-size: 23.23px;
      }

      .st6, .st7, .st8, .st9, .st10, .st3, .st11, .st12, .st13, .st14 {
        stroke: #fff;
      }

      .st6, .st8, .st15, .st1, .st10, .st3, .st4, .st11, .st13 {
        stroke-miterlimit: 10;
      }

      .st6, .st9, .st16, .st13, .st14 {
        fill: #fff;
      }

      .st7, .st8, .st1, .st3, .st4, .st12 {
        fill: none;
      }

      .st7, .st9, .st16, .st12, .st14 {
        stroke-linejoin: round;
      }

      .st15, .st16, .st1, .st4 {
        stroke: #000;
      }

      .st16, .st12, .st14 {
        stroke-linecap: round;
      }

      .st1 {
        stroke-width: .25px;
      }

      .st1, .st3, .st5 {
        font-size: 21.35px;
      }

      .st10 {
        fill-opacity: 0;
      }

      .st10, .st13 {
        fill-rule: evenodd;
      }
    </style>
  </defs>
  <path class="st6" d="M493.23,727.51l10.3-9.7.39-16.21c-.53-3.91-7.92-7.01-10.69-8.92v34.83h0Z"/>
  <path class="st6" d="M1224.2,706.21c-.8-3.16-15.16-14.49-15.75-13.54v13.55h15.75Z"/>
  <path class="st6" d="M517.94,695.12c-10.08.3-13.01,16.97-5.87,25.7,14.15,17.32,23.26-26.22,5.87-25.7h0Z"/>
  <path class="st6" d="M540.5,694.61c-10.76,3.06-7.62,12-9.09,22.05l9.09,8.94v-30.95h0v-.03h0Z"/>
  <path class="st6" d="M1562.88,731.37v-32.9c-13.51,8.11-13.48,24.82,0,32.9Z"/>
  <path class="st6" d="M1517.19,731.37c12.66-5.62,14.34-27.32,0-30.95v30.95Z"/>
  <path class="st6" d="M1208.44,735.25l18.86-16.45c.03-4.6-15.69-2.5-18.87-2.91v19.36h.01,0Z"/>
  <path class="st6" d="M627.13,781.73l-.77-17.43c-4.27,4.46-4.27,11.02-3.94,17.43h4.71-.01.01Z"/>
  <path class="st6" d="M642.89,781.71c.65-7.1-.91-12.94-5.52-17.39-4.18,4.26-1.89,11.69-2.36,17.39h7.91-.03Z"/>
  <path class="st6" d="M1418.73,780.47c-10.82-.79-14.47,24.03-3.07,26.41,15.89,3.32,13.77-25.65,3.07-26.41Z"/>
  <polygon class="st6" points="1132.83 787.51 1110.76 787.51 1115.53 803.01 1127.79 800.67 1132.83 787.51"/>
  <polygon class="st6" points="614.52 853.31 614.52 850.45 608.24 845.58 609.77 852.38 614.52 853.31"/>
  <polygon class="st6" points="1132.83 876.53 1110.76 876.53 1116.37 890.13 1126.6 889.13 1132.83 876.53"/>
  <path class="st6" d="M1127.68,920.52c6.75-7.88,2.42-26.83-7.94-26.29-15,8.42-3.38,39.47,7.94,26.29Z"/>
  <path class="st11" d="M324.69,369.49"/>
  <path class="st11" d="M581.45,837.84"/>
  <path class="st6" d="M517.94,695.12c17.41-.52,8.26,43-5.87,25.7-7.13-8.74-4.21-25.4,5.87-25.7h0Z"/>
  <path class="st6" d="M1127.68,920.52c-11.32,13.17-22.94-17.85-7.94-26.29,10.33-.53,14.69,18.42,7.94,26.29Z"/>
  <path class="st6" d="M1418.73,780.47c10.71.77,12.83,29.72-3.07,26.41-11.42-2.38-7.73-27.2,3.07-26.41Z"/>
  <path class="st6" d="M493.23,727.51v-34.83c2.77,1.92,10.15,4.99,10.69,8.92l-.39,16.21-10.3,9.7h0Z"/>
  <path class="st6" d="M1517.19,731.37v-30.95c14.34,3.63,12.66,25.36,0,30.95Z"/>
  <path class="st6" d="M1562.88,731.37c-13.48-8.09-13.51-24.82,0-32.9v32.9Z"/>
  <path class="st6" d="M1208.44,735.25v-19.36c3.17.41,18.89-1.67,18.86,2.91l-18.86,16.45h0Z"/>
  <path class="st6" d="M540.5,694.61v30.95l-9.09-8.94c1.45-10.04-1.67-18.95,9.09-22.05h0v.03h0Z"/>
  <polygon class="st6" points="1132.83 876.53 1126.6 889.13 1116.37 890.13 1110.76 876.53 1132.83 876.53"/>
  <path class="st6" d="M642.89,781.71h-7.91c.49-5.7-1.82-13.13,2.36-17.39,4.62,4.45,6.18,10.27,5.52,17.39h.03Z"/>
  <path class="st6" d="M627.13,781.73h-4.71c-.31-6.38-.34-12.97,3.94-17.43l.77,17.43h.01-.01Z"/>
  <polygon class="st6" points="614.52 853.31 609.77 852.38 608.24 845.58 614.52 850.45 614.52 853.31"/>
  <path class="st6" d="M1207.64,673.34c1.03.64,1.03,1.29,0,1.93v-1.93Z"/>
  <path class="st6" d="M1240.71,665.59c1.03.64,1.03,1.29,0,1.93v-1.93Z"/>
  <polygon class="st6" points="1611.72 1222.96 1624.32 1222.96 1624.32 1222.96 1611.72 1222.96"/>
  <path class="st11" d="M131.1,750.3"/>
  <path class="st9" d="M106.49,764.04c13.11,0,25.67,6.27,34.95,17.46,9.27,11.2,14.47,26.37,14.47,42.19v277.09H57.08v-277.09c0-32.97,22.12-59.66,49.42-59.66h-.01Z"/>
  <path class="st11" d="M106.49,764.04"/>
  <path class="st7" d="M110.68,466.49l-4.08,298.03"/>
  <path class="st10" d="M585.07,860.33"/>
  <path class="st10" d="M111.06,466.5"/>
  <path class="st8" d="M585.07,860.33"/>
  <path class="st8" d="M111.06,466.5"/>
  <path class="st7" d="M585.07,860.33"/>
  <path class="st7" d="M111.06,466.5"/>
  <path class="st13" d="M132.22,466.5h-42.3l21.16-43.27-21.16-43.27h42.3l-21.16,43.27,21.16,43.27Z"/>
  <path class="st7" d="M132.22,466.5h-42.3l21.16-43.27-21.16-43.27h42.3l-21.16,43.27,21.16,43.27Z"/>
  <g>
    <line class="st8" x1="115.23" y1="423.15" x2="148.52" y2="423.34"/>
    <line class="st8" x1="115.23" y1="423.15" x2="148.52" y2="423.34"/>
  </g>
  <path class="st7" d="M115.24,423.76l33.29-1.05"/>
  <path class="st13" d="M137.45,392.2h0c10.22,5.7,16.97,18.83,16.93,32.93-.03,14.11-6.83,26.26-17.08,30.52l.12-63.45h.03Z"/>
  <path class="st7" d="M137.45,392.2h0c10.22,5.7,16.97,18.83,16.93,32.93-.03,14.11-6.83,26.26-17.08,30.52l.12-63.45h.03Z"/>
  <path class="st10" d="M111.06,379.98"/>
  <path class="st8" d="M111.06,379.98"/>
  <path class="st7" d="M111.06,379.98"/>
  <polyline class="st8" points="111.06 379.98 111.06 263.93 215.18 263.93"/>
  <path class="st13" d="M145.83,94.06l32.18,23.23-32.12,23.23-.06-46.45h0Z"/>
  <path class="st7" d="M145.83,94.06l32.18,23.23-32.12,23.23-.06-46.45h0Z"/>
  <path class="st13" d="M159.88,158.35l18.92-41.85,18.92,41.79-37.8.06h-.04Z"/>
  <path class="st7" d="M159.88,158.35l18.92-41.85,18.92,41.79-37.8.06h-.04Z"/>
  <g>
    <line class="st8" x1="187.58" y1="118.77" x2="193.65" y2="118.77"/>
    <line class="st8" x1="187.58" y1="118.77" x2="193.65" y2="118.77"/>
  </g>
  <path class="st7" d="M187.58,118.77h6.05"/>
  <g>
    <line class="st8" x1="193.65" y1="119.38" x2="198.03" y2="103.23"/>
    <line class="st8" x1="193.65" y1="119.38" x2="198.03" y2="103.23"/>
  </g>
  <path class="st7" d="M193.65,119.38l4.36-16.15"/>
  <g>
    <line class="st8" x1="198.03" y1="105.12" x2="202.73" y2="132.43"/>
    <line class="st8" x1="198.03" y1="105.12" x2="202.73" y2="132.43"/>
  </g>
  <path class="st7" d="M198.03,105.12l4.71,27.31"/>
  <g>
    <line class="st8" x1="202.74" y1="133" x2="208.79" y2="104.46"/>
    <line class="st8" x1="202.74" y1="133" x2="208.79" y2="104.46"/>
  </g>
  <path class="st7" d="M202.74,133l6.05-28.54"/>
  <g>
    <line class="st8" x1="208.79" y1="104.48" x2="214.85" y2="133.01"/>
    <line class="st8" x1="208.79" y1="104.48" x2="214.85" y2="133.01"/>
  </g>
  <path class="st7" d="M208.79,104.48l6.05,28.54"/>
  <path class="st13" d="M175.46,106.12h0c6.7,0,12.11,5.82,12.08,13.02h0c0,3.44-1.29,6.76-3.56,9.21-2.27,2.45-5.37,3.81-8.57,3.81h0c-6.7,0-12.11-5.82-12.08-13.02h0c0-7.2,5.44-13.02,12.13-13.02h0Z"/>
  <path class="st7" d="M175.46,106.12h0c6.7,0,12.11,5.82,12.08,13.02h0c0,3.44-1.29,6.76-3.56,9.21-2.27,2.45-5.37,3.81-8.57,3.81h0c-6.7,0-12.11-5.82-12.08-13.02h0c0-7.2,5.44-13.02,12.13-13.02h0Z"/>
  <path class="st8" d="M266.71,331.17"/>
  <path class="st8" d="M175.46,106.12"/>
  <path class="st7" d="M175.56,262.35l.75-104"/>
  <path class="st13" d="M215.62,246.6h0c0-5.88,3.87-10.64,8.67-10.64h93.07c2.3,0,4.5,1.13,6.12,3.13s2.54,4.71,2.54,7.54v42.59c0,5.88-3.87,10.64-8.67,10.64h-93.07c-4.78,0-8.67-4.76-8.67-10.64v-42.59h0v-.02Z"/>
  <path class="st7" d="M248.96,310.55h0"/>
  <path class="st7" d="M248.96,299.83"/>
  <path class="st13" d="M309.08,321.27h-5.84c-2.32,0-4.54-1.13-6.18-3.16s-2.56-4.74-2.56-7.59v-10.73h23.32v10.73h0c0,5.92-3.91,10.73-8.74,10.73h0v.02Z"/>
  <path class="st13" d="M274.49,320.68h-5.84c-2.32,0-4.54-1.13-6.18-3.16s-2.56-4.74-2.56-7.59v-10.73h23.32v10.73h0c0,5.92-3.91,10.73-8.74,10.73h0v.02Z"/>
  <path class="st13" d="M243.61,321.27h-5.84c-2.32,0-4.54-1.13-6.18-3.16s-2.56-4.74-2.56-7.59v-10.73h23.32v10.73h0c0,5.92-3.91,10.73-8.74,10.73h0v.02Z"/>
  <path class="st8" d="M589.31,853.32c-174.31,0-348.64-265.69-348.64-531.37"/>
  <path class="st8" d="M589.25,836.45c-158.84,0-317.7-257.24-317.7-514.5"/>
  <g>
    <path class="st10" d="M921.71,654.6c-307.79,0-615.56-166.66-615.56-333.3"/>
    <path class="st8" d="M921.71,653.98c-307.79,0-615.56-166.66-615.56-333.3"/>
  </g>
  <path class="st15" d="M92.02,938.58v-25.85h4.13l8.59,17.28v-17.28h3.97v25.85h-4.25l-8.48-16.86v16.86h-3.96Z"/>
  <path class="st15" d="M120.96,949.07v3.06h-9.43c.11-1.18.41-2.27.91-3.31.52-1.05,1.51-2.43,3.03-4.15,1.21-1.36,1.96-2.3,2.24-2.8.35-.68.53-1.36.53-2.03,0-.72-.16-1.29-.5-1.7-.31-.41-.75-.59-1.33-.59s-1,.22-1.33.64-.53,1.1-.59,2.07l-2.65-.3c.14-1.82.64-3.16,1.47-3.93.84-.79,1.9-1.18,3.17-1.18,1.36,0,2.46.46,3.26,1.39.8.92,1.21,2.04,1.21,3.38,0,.79-.11,1.52-.34,2.23s-.59,1.44-1.09,2.22c-.31.52-.92,1.24-1.77,2.22-.83.95-1.36,1.57-1.6,1.92-.23.3-.41.59-.53.92h5.33v-.04h.03-.01Z"/>
  <path class="st13" d="M632.29,781.73h0c11.52,0,22.6,6.33,30.74,17.57,8.15,11.25,12.73,26.52,12.73,42.41v278.53h-86.97v-278.53h0c0-33.13,19.46-59.98,43.48-59.98h.01Z"/>
  <path class="st13" d="M629.36,762.3h5.84c2.32,0,4.54,1.13,6.18,3.16s2.56,4.74,2.56,7.59v10.73h-23.32v-10.73h0c0-5.92,3.91-10.73,8.74-10.73h0v-.02Z"/>
  <path class="st13" d="M492.95,728.45v-36.87l24.85,18.42,24.85-18.42v36.87l-24.85-18.42-24.85,18.42Z"/>
  <path class="st13" d="M530.4,711.02h0c0,7.62-5.57,13.77-12.43,13.77h0c-6.86,0-12.43-6.18-12.43-13.77h0c0-7.62,5.57-13.77,12.43-13.77h0c6.86,0,12.43,6.18,12.43,13.77h0Z"/>
  <path class="st13" d="M545.21,712.04"/>
  <polyline class="st8" points="542.65 710.01 580.18 710.01 580.18 773.02 620.62 773.02"/>
  <path class="st15" d="M607.55,948.7v-25.85h4.13l8.59,17.28v-17.28h3.97v25.85h-4.25l-8.48-16.86v16.86h-3.96Z"/>
  <path class="st15" d="M636.49,959.19v3.06h-9.43c.11-1.18.41-2.27.91-3.31.52-1.05,1.51-2.43,3.03-4.15,1.21-1.36,1.96-2.3,2.24-2.8.35-.68.53-1.36.53-2.03,0-.72-.16-1.29-.5-1.7-.31-.41-.75-.59-1.33-.59s-1,.22-1.33.64-.53,1.1-.59,2.07l-2.65-.3c.14-1.82.64-3.16,1.47-3.93.84-.79,1.9-1.18,3.17-1.18,1.36,0,2.46.46,3.26,1.39s1.21,2.04,1.21,3.38c0,.79-.11,1.52-.34,2.23s-.59,1.44-1.09,2.22c-.31.52-.92,1.24-1.77,2.22-.83.95-1.36,1.57-1.6,1.92-.23.3-.41.59-.53.92h5.33v-.04h.03-.01Z"/>
  <path class="st15" d="M638.75,935.94c0-2.64.31-4.84.95-6.61.49-1.35,1.13-2.5,1.94-3.54.83-1.05,1.74-1.82,2.74-2.33,1.32-.68,2.83-1.02,4.54-1.02,3.09,0,5.59,1.18,7.43,3.54,1.86,2.35,2.81,5.65,2.81,9.85s-.92,7.44-2.77,9.78c-1.83,2.35-4.31,3.54-7.38,3.54s-5.61-1.18-7.5-3.51c-1.83-2.35-2.76-5.59-2.76-9.7h-.03.02ZM643.15,935.74c0,2.91.54,5.14,1.66,6.65s2.49,2.27,4.18,2.27,3.07-.74,4.16-2.23c1.1-1.51,1.66-3.77,1.66-6.75s-.53-5.17-1.6-6.61c-1.05-1.47-2.46-2.22-4.21-2.22s-3.17.74-4.24,2.23c-1.06,1.47-1.6,3.69-1.6,6.65h.01-.01Z"/>
  <polyline class="st8" points="632.29 762.3 632.29 710.11 773.67 710.01 773.67 808.56"/>
  <line class="st8" x1="773.67" y1="710.01" x2="917.12" y2="710.01"/>
  <polyline class="st8" points="992.18 711.27 1121.65 712.04 1121.65 783.29"/>
  <path class="st13" d="M1136.8,845.23h-30.02l14.99-30.53-14.99-30.53h30.02l-14.99,30.53,14.99,30.53Z"/>
  <path class="st7" d="M1136.8,845.23h-30.02l14.99-30.53-14.99-30.53h30.02l-14.99,30.53,14.99,30.53Z"/>
  <path class="st13" d="M1121.77,799.43h0c6.2,0,11.21,6.83,11.21,15.28h0c0,8.42-5.01,15.28-11.21,15.28h0c-6.2,0-11.21-6.83-11.21-15.28h0c0-8.42,5.01-15.28,11.21-15.28Z"/>
  <path class="st13" d="M1136.8,932.78h-30.02l14.99-30.53-14.99-30.53h30.02l-14.99,30.53,14.99,30.53Z"/>
  <path class="st13" d="M1121.78,886.97h0c6.2,0,11.21,6.83,11.21,15.28h0c0,8.42-5.01,15.28-11.21,15.28h0c-6.2,0-11.21-6.83-11.21-15.28h0c0-8.42,5.01-15.28,11.21-15.28Z"/>
  <line class="st8" x1="1121.77" y1="845.23" x2="1121.78" y2="871.7"/>
  <path class="st13" d="M1167.89,902.25"/>
  <path class="st13" d="M1183.16,898.39"/>
  <line class="st8" x1="1132.99" y1="902.25" x2="1162.04" y2="902.25"/>
  <rect class="st6" x="1162.04" y="878.32" width="39.84" height="48.96"/>
  <g class="st2">
    <g class="st2">
      <g class="st2">
        <g class="st2">
          <g class="st2">
            <g class="st2">
              <g class="st2">
                <text class="st0" transform="translate(1177.44 907.51) scale(.81 1)"><tspan x="0" y="0">S</tspan></text>
                <text class="st4" transform="translate(1177.44 907.51) scale(.81 1)"><tspan x="0" y="0">S</tspan></text>
              </g>
            </g>
          </g>
        </g>
      </g>
      <g class="st2">
        <g class="st2">
          <g class="st2">
            <g class="st2">
              <g class="st2">
                <text class="st4" transform="translate(1177.44 907.51) scale(.81 1)"><tspan x="0" y="0">S</tspan></text>
              </g>
            </g>
          </g>
        </g>
      </g>
    </g>
  </g>
  <line class="st8" x1="1121.65" y1="712.04" x2="1205.12" y2="712.04"/>
  <polygon class="st6" points="1240.71 713.53 1205.12 683.72 1205.12 743.32 1240.71 713.53"/>
  <line class="st8" x1="1241.49" y1="686.87" x2="1241.49" y2="743.32"/>
  <polyline class="st8" points="1242.37 713.53 1322.52 715.77 1322.52 881.99"/>
  <polyline class="st8" points="1322.52 715.77 1417.91 715.92 1417.91 775.89"/>
  <path class="st8" d="M1105.14,911.54c-213.88,0-427.74-24.56-427.74-49.13"/>
  <path class="st7" d="M1334.84,962.25c-327.9,0-655.82-39.27-655.82-78.6"/>
  <path class="st7" d="M1388.79,765.25l32.18,23.23-32.12,23.23-.06-46.45h0Z"/>
  <path class="st7" d="M1402.82,829.55l18.92-41.85,18.92,41.79-37.8.06h-.04Z"/>
  <g>
    <line class="st8" x1="1430.52" y1="789.96" x2="1436.57" y2="789.96"/>
    <line class="st8" x1="1430.52" y1="789.96" x2="1436.57" y2="789.96"/>
  </g>
  <path class="st7" d="M1430.52,789.96h6.05"/>
  <g>
    <line class="st8" x1="1436.59" y1="790.57" x2="1440.95" y2="774.42"/>
    <line class="st8" x1="1436.59" y1="790.57" x2="1440.95" y2="774.42"/>
  </g>
  <path class="st7" d="M1436.59,790.57l4.36-16.15"/>
  <g>
    <line class="st8" x1="1440.97" y1="776.32" x2="1445.66" y2="803.62"/>
    <line class="st8" x1="1440.97" y1="776.32" x2="1445.66" y2="803.62"/>
  </g>
  <path class="st7" d="M1440.97,776.32l4.71,27.31"/>
  <line class="st8" x1="1445.69" y1="804.19" x2="1451.75" y2="775.66"/>
  <line class="st8" x1="1445.69" y1="804.19" x2="1451.75" y2="775.66"/>
  <path class="st7" d="M1445.69,804.19l6.05-28.54"/>
  <line class="st8" x1="1451.74" y1="775.69" x2="1457.8" y2="804.21"/>
  <line class="st8" x1="1451.74" y1="775.69" x2="1457.8" y2="804.21"/>
  <path class="st7" d="M1451.74,775.69l6.05,28.54"/>
  <path class="st13" d="M1418.4,777.32h0c6.7,0,12.11,5.82,12.08,13.02h0c0,3.44-1.29,6.76-3.56,9.21s-5.37,3.81-8.57,3.81h0c-6.7,0-12.11-5.82-12.08-13.02h0c0-7.2,5.44-13.02,12.13-13.02h0Z"/>
  <path class="st7" d="M1418.4,777.32h0c6.7,0,12.11,5.82,12.08,13.02h0c0,3.44-1.29,6.76-3.56,9.21s-5.37,3.81-8.57,3.81h0c-6.7,0-12.11-5.82-12.08-13.02h0c0-7.2,5.44-13.02,12.13-13.02h0Z"/>
  <path class="st8" d="M1418.4,777.32"/>
  <path class="st7" d="M1418.4,777.32"/>
  <path class="st7" d="M1175.38,682.92"/>
  <path class="st7" d="M1150.52,664.48"/>
  <g>
    <path class="st9" d="M1562.22,696.15v36.87l-24.85-18.42-24.85,18.42v-36.87l24.85,18.42,24.85-18.42Z"/>
    <path class="st13" d="M1524.78,713.59h0c0-7.62,5.57-13.77,12.43-13.77h0c6.86,0,12.43,6.18,12.43,13.77h0c0,7.62-5.57,13.77-12.43,13.77h0c-6.86,0-12.43-6.18-12.43-13.77Z"/>
  </g>
  <line class="st7" x1="1417.91" y1="715.92" x2="1512.51" y2="715.92"/>
  <path class="st7" d="M1676.44,707.52"/>
  <path class="st7" d="M1669.28,706.23"/>
  <path class="st7" d="M1669.28,707.44"/>
  <line class="st7" x1="1636.37" y1="706.44" x2="1636.37" y2="725.02"/>
  <path class="st7" d="M1636.37,733.85"/>
  <path class="st7" d="M1636.37,715.27"/>
  <polygon class="st9" points="1636.06 715.72 1603.14 724.02 1592.72 724.02 1603.14 715.72 1592.72 706.23 1603.14 707.44 1636.06 715.72"/>
  <line class="st7" x1="1603.14" y1="715.72" x2="1582.27" y2="715.27"/>
  <path class="st7" d="M1603.14,724.02"/>
  <polygon class="st9" points="1636.67 716.35 1669.6 724.61 1680.03 724.61 1669.6 716.35 1680.03 706.85 1669.6 708.06 1636.67 716.35"/>
  <line class="st7" x1="1562.22" y1="714.59" x2="1586.63" y2="713.76"/>
  <polygon class="st6" points="1749.17 714.94 1713.57 685.15 1713.57 744.75 1749.17 714.94"/>
  <line class="st8" x1="1749.93" y1="688.27" x2="1749.93" y2="744.75"/>
  <line class="st8" x1="1669.6" y1="716.35" x2="1713.57" y2="714.94"/>
  <g>
    <path class="st14" d="M1892.61,1045.33c2.43,4.64,3.3,10.04,5.23,14.95,2.68,6.83,2.38,12.24-5.19,14.97-18.31,6.65-36.27,7.16-54.33-1.1-4.97-2.27-5.19-5.67-3.57-10.75,1.82-5.66,6.63-12.76,8.97-18.19"/>
    <path class="st14" d="M1827.66,916.62c-1.97,17.69-.54,35.47-.83,53.19-.24,15.95-.06,31.92-.06,47.87,0,14.29,5.61,24.19,16.93,27.53,15.31,4.52,30.89,4.46,46.2,0,10-2.9,16.92-14.9,16.92-27.53,0-29.08.06-58.15-.01-87.23-.01-9.57-1.36-17.96-1.1-25.55.27-7.38-4.21-11.69-10.45-12.74l-3.56-4.26c-16.59-5.88-33.21-6.04-49.82,0l-3.56,4.26c-7.09.06-10.22,5.62-11.48,12.79-1.47,8.6,4.05,12.52,8.74,17.09,5.29,5.13,11.89,7.54,17.86,8.01,17.75,1.4,36.39,1.5,51.13-14.48"/>
    <line class="st12" x1="1865.41" y1="714.17" x2="1749.17" y2="714.94"/>
    <path class="st12" d="M1865.41,765.59v-51.4"/>
    <path class="st12" d="M1866.8,903.84v-25.54"/>
    <path class="st12" d="M1839.24,899.6c1.82-7.01.75-14.18.9-21.28h-66.6"/>
    <path class="st12" d="M1893.49,900.66v-22.34h49.16V253.72h-76.03l.19,20.03"/>
  </g>
  <rect class="st16" x="1843.6" y="482.72" width="46.04" height="166.66"/>
  <rect class="st16" x="1843.6" y="452.38" width="46.04" height="30.52"/>
  <g class="st2">
    <g class="st2">
      <g class="st2">
        <g class="st2">
          <g class="st2">
            <g class="st2">
              <g class="st2">
                <text class="st5" transform="translate(1872.6 609.8) rotate(-90) scale(1.2 1)"><tspan x="0" y="0">Oxidizer</tspan></text>
              </g>
            </g>
          </g>
        </g>
      </g>
      <g class="st2">
        <g class="st2">
          <g class="st2">
            <g class="st2">
              <g class="st2">
                <text class="st3" transform="translate(1872.6 609.8) rotate(-90) scale(1.2 1)"><tspan x="0" y="0">Oxidizer</tspan></text>
              </g>
            </g>
          </g>
        </g>
      </g>
    </g>
    <g class="st2">
      <g class="st2">
        <g class="st2">
          <g class="st2">
            <g class="st2">
              <g class="st2">
                <text class="st5" transform="translate(1872.6 609.8) rotate(-90) scale(1.2 1)"><tspan x="0" y="0">Oxidizer</tspan></text>
              </g>
            </g>
          </g>
        </g>
      </g>
      <g class="st2">
        <g class="st2">
          <g class="st2">
            <g class="st2">
              <g class="st2">
                <text class="st1" transform="translate(1872.6 609.8) rotate(-90) scale(1.2 1)"><tspan x="0" y="0">Oxidizer</tspan></text>
              </g>
            </g>
          </g>
        </g>
      </g>
    </g>
  </g>
  <polygon class="st11" points="1875.29 463.13 1870.63 463.13 1870.63 481.81 1861.38 481.81 1861.38 463.13 1857.3 463.13 1866.28 452.38 1875.29 463.13"/>
  <rect class="st16" x="1843.6" y="364.28" width="46.04" height="87.19"/>
  <g class="st2">
    <g class="st2">
      <g class="st2">
        <g class="st2">
          <g class="st2">
            <g class="st2">
              <g class="st2">
                <text class="st5" transform="translate(1873.12 418.52) rotate(-90) scale(1.2 1)"><tspan x="0" y="0">Fill</tspan></text>
              </g>
            </g>
          </g>
        </g>
      </g>
      <g class="st2">
        <g class="st2">
          <g class="st2">
            <g class="st2">
              <g class="st2">
                <text class="st3" transform="translate(1873.12 418.52) rotate(-90) scale(1.2 1)"><tspan x="0" y="0">Fill</tspan></text>
              </g>
            </g>
          </g>
        </g>
      </g>
    </g>
    <g class="st2">
      <g class="st2">
        <g class="st2">
          <g class="st2">
            <g class="st2">
              <g class="st2">
                <text class="st5" transform="translate(1873.12 418.52) rotate(-90) scale(1.2 1)"><tspan x="0" y="0">Fill</tspan></text>
              </g>
            </g>
          </g>
        </g>
      </g>
      <g class="st2">
        <g class="st2">
          <g class="st2">
            <g class="st2">
              <g class="st2">
                <text class="st1" transform="translate(1873.12 418.52) rotate(-90) scale(1.2 1)"><tspan x="0" y="0">Fill</tspan></text>
              </g>
            </g>
          </g>
        </g>
      </g>
    </g>
  </g>
  <line class="st12" x1="1865.41" y1="714.17" x2="1866.62" y2="649.38"/>
  <path class="st12" d="M1866.8,880.96v-51.4"/>
  <line class="st12" x1="1866.62" y1="364.28" x2="1866.8" y2="331.83"/>
</svg>