<svg version="1.1" viewBox="0.0 0.0 972.5275590551181 437.3622047244094" fill="none" stroke="none" stroke-linecap="square" stroke-miterlimit="10" xmlns:xlink="http://www.w3.org/1999/xlink" xmlns="http://www.w3.org/2000/svg"><clipPath id="p.0"><path d="m0 0l972.5276 0l0 437.3622l-972.5276 0l0 -437.3622z" clip-rule="nonzero"/></clipPath><g clip-path="url(#p.0)"><path fill="#000000" fill-opacity="0.0" d="m0 0l972.5276 0l0 437.3622l-972.5276 0z" fill-rule="evenodd"/><path fill="#ffffff" d="m16.82021 325.98163l54.55118 0l0 97.29135l-54.55118 0z" fill-rule="evenodd"/><path stroke="#ffffff" stroke-width="1.0" stroke-linejoin="round" stroke-linecap="butt" d="m16.82021 325.98163l54.55118 0l0 97.29135l-54.55118 0z" fill-rule="evenodd"/><path fill="#ffffff" d="m17.276903 346.021l0 -23.181091l0 0c0 -12.802582 12.007229 -23.181122 26.8189 -23.181122c14.811665 0 26.818893 10.37854 26.818893 23.181122l0 23.181091z" fill-rule="evenodd"/><path stroke="#ffffff" stroke-width="1.0" stroke-linejoin="round" stroke-linecap="butt" d="m17.276903 346.021l0 -23.181091l0 0c0 -12.802582 12.007229 -23.181122 26.8189 -23.181122c14.811665 0 26.818893 10.37854 26.818893 23.181122l0 23.181091z" fill-rule="evenodd"/><path fill="#000000" fill-opacity="0.0" d="m16.82021 339.46326l54.55118 0l0 37.984253l-54.55118 0z" fill-rule="evenodd"/><path fill="#000000" d="m28.066969 366.38324l0 -13.359375l1.8125 0l7.015627 10.484375l0 -10.484375l1.6875 0l0 13.359375l-1.8125 0l-7.015627 -10.5l0 10.5l-1.6875 0z" fill-rule="nonzero"/><path fill="#000000" d="m46.383667 372.33636l0 1.046875l-5.890625 0q-0.015625 -0.390625 0.125 -0.765625q0.234375 -0.59375 0.71875 -1.171875q0.5 -0.59375 1.4375 -1.359375q1.453125 -1.1875 1.953125 -1.875q0.515625 -0.703125 0.515625 -1.3125q0 -0.65625 -0.46875 -1.09375q-0.453125 -0.453125 -1.203125 -0.453125q-0.796875 0 -1.265625 0.46875q-0.46875 0.46875 -0.484375 1.3125l-1.125 -0.109375q0.125 -1.265625 0.875 -1.921875q0.75 -0.65625 2.015625 -0.65625q1.28125 0 2.03125 0.71875q0.75 0.703125 0.75 1.75q0 0.53125 -0.21875 1.046875q-0.21875 0.515625 -0.734375 1.09375q-0.5 0.5625 -1.671875 1.5625q-0.984375 0.828125 -1.265625 1.125q-0.28125 0.296875 -0.46875 0.59375l4.375 0z" fill-rule="nonzero"/><path fill="#000000" d="m47.94133 359.88324q0 -3.328125 1.7812462 -5.203125q1.78125 -1.890625 4.609375 -1.890625q1.84375 0 3.328125 0.890625q1.484375 0.875 2.265625 2.46875q0.78125 1.578125 0.78125 3.578125q0 2.03125 -0.828125 3.640625q-0.8125 1.59375 -2.3125 2.421875q-1.5 0.828125 -3.25 0.828125q-1.875 0 -3.359375 -0.90625q-1.484375 -0.921875 -2.2499962 -2.5q-0.765625 -1.578125 -0.765625 -3.328125zm1.8124962 0.015625q0 2.421875 1.296875 3.8125q1.296875 1.390625 3.265625 1.390625q2.0 0 3.28125 -1.40625q1.28125 -1.40625 1.28125 -3.984375q0 -1.625 -0.546875 -2.84375q-0.546875 -1.21875 -1.609375 -1.875q-1.0625 -0.671875 -2.375 -0.671875q-1.890625 0 -3.25 1.296875q-1.34375 1.28125 -1.34375 4.28125z" fill-rule="nonzero"/><path fill="#000000" fill-opacity="0.0" d="m44.095802 299.65878l-0.5984268 -90.58267" fill-rule="evenodd"/><path stroke="#ffffff" stroke-width="1.0" stroke-linejoin="round" stroke-linecap="butt" d="m44.095802 299.65878l-0.5984268 -90.58267" fill-rule="evenodd"/><path fill="#000000" fill-opacity="0.0" d="m44.09719 208.18794l570.01575 0.22047424" fill-rule="evenodd"/><path stroke="#ffffff" stroke-width="1.0" stroke-linejoin="round" stroke-linecap="butt" d="m44.09719 208.18794l570.01575 0.22047424" fill-rule="evenodd"/><path fill="#000000" fill-opacity="0.0" d="m127.64698 257.58005l0.15747833 -48.503937" fill-rule="evenodd"/><path stroke="#ffffff" stroke-width="1.0" stroke-linejoin="round" stroke-linecap="butt" d="m127.64698 257.58005l0.15747833 -48.503937" fill-rule="evenodd"/><path fill="#ffffff" d="m185.2769 346.021l0 -23.653534l0 0c0 -13.063507 12.12709 -23.653564 27.086609 -23.653564c14.959534 0 27.086624 10.590057 27.086624 23.653564l0 23.653534z" fill-rule="evenodd"/><path stroke="#ffffff" stroke-width="1.0" stroke-linejoin="round" stroke-linecap="butt" d="m185.2769 346.021l0 -23.653534l0 0c0 -13.063507 12.12709 -23.653564 27.086609 -23.653564c14.959534 0 27.086624 10.590057 27.086624 23.653564l0 23.653534z" fill-rule="evenodd"/><path fill="#ffffff" d="m185.7336 341.43832l53.637787 0l0 81.82678l-53.637787 0z" fill-rule="evenodd"/><path stroke="#ffffff" stroke-width="1.0" stroke-linejoin="round" stroke-linecap="butt" d="m185.7336 341.43832l53.637787 0l0 81.82678l-53.637787 0z" fill-rule="evenodd"/><path fill="#000000" fill-opacity="0.0" d="m184.8202 339.46326l54.551178 0l0 37.984253l-54.551178 0z" fill-rule="evenodd"/><path fill="#000000" d="m203.32268 366.38324l0 -13.359375l1.8125 0l7.015625 10.484375l0 -10.484375l1.6875 0l0 13.359375l-1.8125 0l-7.015625 -10.5l0 10.5l-1.6875 0z" fill-rule="nonzero"/><path fill="#000000" d="m221.63937 372.33636l0 1.046875l-5.890625 0q-0.015625 -0.390625 0.125 -0.765625q0.234375 -0.59375 0.71875 -1.171875q0.5 -0.59375 1.4375 -1.359375q1.453125 -1.1875 1.953125 -1.875q0.515625 -0.703125 0.515625 -1.3125q0 -0.65625 -0.46875 -1.09375q-0.453125 -0.453125 -1.203125 -0.453125q-0.796875 0 -1.265625 0.46875q-0.46875 0.46875 -0.484375 1.3125l-1.125 -0.109375q0.125 -1.265625 0.875 -1.921875q0.75 -0.65625 2.015625 -0.65625q1.28125 0 2.03125 0.71875q0.75 0.703125 0.75 1.75q0 0.53125 -0.21875 1.046875q-0.21875 0.515625 -0.734375 1.09375q-0.5 0.5625 -1.671875 1.5625q-0.984375 0.828125 -1.265625 1.125q-0.28125 0.296875 -0.46875 0.59375l4.375 0z" fill-rule="nonzero"/><path fill="#000000" fill-opacity="0.0" d="m211.35564 207.24934l1.0078735 91.464554" fill-rule="evenodd"/><path stroke="#ffffff" stroke-width="1.0" stroke-linejoin="round" stroke-linecap="butt" d="m211.35564 207.24934l1.0078735 91.464554" fill-rule="evenodd"/><path fill="#000000" fill-opacity="0.0" d="m211.00131 253.16273l137.25986 0.37794495" fill-rule="evenodd"/><path stroke="#ffffff" stroke-width="1.0" stroke-linejoin="round" stroke-linecap="butt" d="m211.00131 253.16273l137.25986 0.37794495" fill-rule="evenodd"/><path fill="#000000" fill-opacity="0.0" d="m348.4029 253.95276l-0.18899536 -45.543304" fill-rule="evenodd"/><path stroke="#ffffff" stroke-width="1.0" stroke-linejoin="round" stroke-linecap="butt" d="m348.4029 253.95276l-0.18899536 -45.543304" fill-rule="evenodd"/><path fill="#000000" fill-opacity="0.0" d="m211.35564 290.6483l188.40947 -0.6614075" fill-rule="evenodd"/><path stroke="#ffffff" stroke-width="1.0" stroke-linejoin="round" stroke-linecap="butt" d="m211.35564 290.6483l188.40947 -0.6614075" fill-rule="evenodd"/><path fill="#000000" fill-opacity="0.0" d="m399.77167 289.9895l0.6929016 -80.91339" fill-rule="evenodd"/><path stroke="#ffffff" stroke-width="1.0" stroke-linejoin="round" stroke-linecap="butt" d="m399.77167 289.9895l0.6929016 -80.91339" fill-rule="evenodd"/><path fill="#000000" fill-opacity="0.0" d="m460.88583 208.14699l0.62991333 117.291336" fill-rule="evenodd"/><path stroke="#ffffff" stroke-width="1.0" stroke-linejoin="round" stroke-linecap="butt" d="m460.88583 208.14699l0.62991333 117.291336" fill-rule="evenodd"/><path fill="#000000" fill-opacity="0.0" d="m471.94095 325.43832l-10.425201 19.24408l-10.425201 -19.24408z" fill-rule="evenodd"/><path stroke="#ffffff" stroke-width="1.0" stroke-linejoin="round" stroke-linecap="butt" d="m471.94095 325.43832l-10.425201 19.24408l-10.425201 -19.24408z" fill-rule="evenodd"/><path fill="#000000" fill-opacity="0.0" d="m480.75986 356.81628l-19.24411 -10.425201l19.24411 -10.425201z" fill-rule="evenodd"/><path stroke="#ffffff" stroke-width="1.0" stroke-linejoin="round" stroke-linecap="butt" d="m480.75986 356.81628l-19.24411 -10.425201l19.24411 -10.425201z" fill-rule="evenodd"/><path fill="#000000" d="m452.00394 346.39108l0 0c0 -5.253235 4.2585754 -9.51181 9.51181 -9.51181l0 0c2.522705 0 4.942047 1.0021362 6.7258606 2.7859497c1.7838135 1.7838135 2.7859497 4.2031555 2.7859497 6.7258606l0 0c0 5.253235 -4.2585754 9.51181 -9.51181 9.51181l0 0c-5.253235 0 -9.51181 -4.2585754 -9.51181 -9.51181z" fill-rule="evenodd"/><path stroke="#ffffff" stroke-width="1.0" stroke-linejoin="round" stroke-linecap="butt" d="m452.00394 346.39108l0 0c0 -5.253235 4.2585754 -9.51181 9.51181 -9.51181l0 0c2.522705 0 4.942047 1.0021362 6.7258606 2.7859497c1.7838135 1.7838135 2.7859497 4.2031555 2.7859497 6.7258606l0 0c0 5.253235 -4.2585754 9.51181 -9.51181 9.51181l0 0c-5.253235 0 -9.51181 -4.2585754 -9.51181 -9.51181z" fill-rule="evenodd"/><path fill="#000000" fill-opacity="0.0" d="m451.45538 346.63516l-5.855652 -7.317566l-3.4147034 11.220459l-4.8766174 -10.24408l-1.9527588 6.3411865" fill-rule="evenodd"/><path stroke="#ffffff" stroke-width="1.0" stroke-linejoin="round" stroke-linecap="butt" d="m451.45538 346.63516l-5.855652 -7.317566l-3.4147034 11.220459l-4.8766174 -10.24408l-1.9527588 6.3411865" fill-rule="evenodd"/><path fill="#000000" fill-opacity="0.0" d="m430.05118 356.72964l62.92914 0l0 19.24411l-62.92914 0z" fill-rule="evenodd"/><path fill="#ffffff" d="m447.1134 377.24966l0 -8.59375l3.8125 0q1.15625 0 1.75 0.234375q0.59375 0.234375 0.953125 0.828125q0.359375 0.578125 0.359375 1.28125q0 0.921875 -0.59375 1.546875q-0.59375 0.625 -1.828125 0.796875q0.453125 0.21875 0.6875 0.421875q0.5 0.453125 0.9375 1.140625l1.5 2.34375l-1.4375 0l-1.125 -1.78125q-0.5 -0.78125 -0.828125 -1.1875q-0.3125 -0.40625 -0.578125 -0.5625q-0.25 -0.171875 -0.515625 -0.25q-0.1875 -0.03125 -0.625 -0.03125l-1.328125 0l0 3.8125l-1.140625 0zm1.140625 -4.796875l2.453125 0q0.765625 0 1.203125 -0.15625q0.453125 -0.171875 0.671875 -0.515625q0.234375 -0.359375 0.234375 -0.78125q0 -0.609375 -0.453125 -1.0q-0.4375 -0.390625 -1.390625 -0.390625l-2.71875 0l0 2.84375zm11.634766 2.796875l1.09375 0.125q-0.25 0.953125 -0.953125 1.484375q-0.703125 0.53125 -1.78125 0.53125q-1.359375 0 -2.171875 -0.84375q-0.796875 -0.84375 -0.796875 -2.359375q0 -1.5625 0.8125 -2.421875q0.8125 -0.875 2.09375 -0.875q1.25 0 2.03125 0.84375q0.796875 0.84375 0.796875 2.390625q0 0.09375 0 0.28125l-4.640625 0q0.0625 1.03125 0.578125 1.578125q0.515625 0.53125 1.296875 0.53125q0.578125 0 0.984375 -0.296875q0.421875 -0.3125 0.65625 -0.96875zm-3.453125 -1.703125l3.46875 0q-0.0625 -0.796875 -0.390625 -1.1875q-0.515625 -0.609375 -1.3125 -0.609375q-0.734375 0 -1.234375 0.484375q-0.484375 0.484375 -0.53125 1.3125zm5.845703 3.703125l0 -8.59375l1.0625 0l0 8.59375l-1.0625 0zm2.6972656 -7.375l0 -1.21875l1.0625 0l0 1.21875l-1.0625 0zm0 7.375l0 -6.21875l1.0625 0l0 6.21875l-1.0625 0zm6.9160156 -2.0l1.09375 0.125q-0.25 0.953125 -0.953125 1.484375q-0.703125 0.53125 -1.78125 0.53125q-1.359375 0 -2.171875 -0.84375q-0.796875 -0.84375 -0.796875 -2.359375q0 -1.5625 0.8125 -2.421875q0.8125 -0.875 2.09375 -0.875q1.25 0 2.03125 0.84375q0.796875 0.84375 0.796875 2.390625q0 0.09375 0 0.28125l-4.640625 0q0.0625 1.03125 0.578125 1.578125q0.515625 0.53125 1.296875 0.53125q0.578125 0 0.984375 -0.296875q0.421875 -0.3125 0.65625 -0.96875zm-3.453125 -1.703125l3.46875 0q-0.0625 -0.796875 -0.390625 -1.1875q-0.515625 -0.609375 -1.3125 -0.609375q-0.734375 0 -1.234375 0.484375q-0.484375 0.484375 -0.53125 1.3125zm6.126953 3.703125l0 -5.40625l-0.9375 0l0 -0.8125l0.9375 0l0 -0.671875q0 -0.625 0.109375 -0.921875q0.15625 -0.421875 0.53125 -0.671875q0.390625 -0.25 1.078125 -0.25q0.453125 0 0.984375 0.109375l-0.15625 0.90625q-0.328125 -0.046875 -0.625 -0.046875q-0.484375 0 -0.6875 0.203125q-0.1875 0.203125 -0.1875 0.765625l0 0.578125l1.21875 0l0 0.8125l-1.21875 0l0 5.40625l-1.046875 0z" fill-rule="nonzero"/><path fill="#ffffff" d="m450.32727 391.64966l-3.328125 -8.59375l1.234375 0l2.234375 6.25q0.265625 0.75 0.453125 1.40625q0.203125 -0.703125 0.46875 -1.40625l2.3125 -6.25l1.15625 0l-3.359375 8.59375l-1.171875 0zm8.597656 -0.765625q-0.59375 0.5 -1.140625 0.703125q-0.53125 0.203125 -1.15625 0.203125q-1.03125 0 -1.578125 -0.5q-0.546875 -0.5 -0.546875 -1.28125q0 -0.453125 0.203125 -0.828125q0.203125 -0.390625 0.546875 -0.609375q0.34375 -0.234375 0.765625 -0.34375q0.296875 -0.09375 0.9375 -0.171875q1.265625 -0.140625 1.875 -0.359375q0 -0.21875 0 -0.265625q0 -0.65625 -0.296875 -0.921875q-0.40625 -0.34375 -1.203125 -0.34375q-0.734375 0 -1.09375 0.265625q-0.359375 0.25 -0.53125 0.90625l-1.03125 -0.140625q0.140625 -0.65625 0.46875 -1.0625q0.328125 -0.40625 0.9375 -0.625q0.609375 -0.21875 1.40625 -0.21875q0.796875 0 1.296875 0.1875q0.5 0.1875 0.734375 0.46875q0.234375 0.28125 0.328125 0.71875q0.046875 0.265625 0.046875 0.96875l0 1.40625q0 1.46875 0.0625 1.859375q0.078125 0.390625 0.28125 0.75l-1.109375 0q-0.15625 -0.328125 -0.203125 -0.765625zm-0.09375 -2.359375q-0.578125 0.234375 -1.71875 0.40625q-0.65625 0.09375 -0.921875 0.21875q-0.265625 0.109375 -0.421875 0.328125q-0.140625 0.21875 -0.140625 0.5q0 0.421875 0.3125 0.703125q0.328125 0.28125 0.9375 0.28125q0.609375 0 1.078125 -0.265625q0.484375 -0.265625 0.703125 -0.734375q0.171875 -0.359375 0.171875 -1.046875l0 -0.390625zm2.6738281 3.125l0 -8.59375l1.0625 0l0 8.59375l-1.0625 0zm4.4160156 0l-2.359375 -6.21875l1.109375 0l1.34375 3.71875q0.203125 0.609375 0.390625 1.25q0.140625 -0.484375 0.390625 -1.171875l1.390625 -3.796875l1.078125 0l-2.359375 6.21875l-0.984375 0zm8.53125 -2.0l1.09375 0.125q-0.25 0.953125 -0.953125 1.484375q-0.703125 0.53125 -1.78125 0.53125q-1.359375 0 -2.171875 -0.84375q-0.796875 -0.84375 -0.796875 -2.359375q0 -1.5625 0.8125 -2.421875q0.8125 -0.875 2.09375 -0.875q1.25 0 2.03125 0.84375q0.796875 0.84375 0.796875 2.390625q0 0.09375 0 0.28125l-4.640625 0q0.0625 1.03125 0.578125 1.578125q0.515625 0.53125 1.296875 0.53125q0.578125 0 0.984375 -0.296875q0.421875 -0.3125 0.65625 -0.96875zm-3.453125 -1.703125l3.46875 0q-0.0625 -0.796875 -0.390625 -1.1875q-0.515625 -0.609375 -1.3125 -0.609375q-0.734375 0 -1.234375 0.484375q-0.484375 0.484375 -0.53125 1.3125z" fill-rule="nonzero"/><path fill="#ffffff" d="m614.1129 202.45572l0 0c0 -1.6438446 1.3326416 -2.9764404 2.9764404 -2.9764404l99.590454 0c0.7894287 0 1.5464478 0.31358337 2.1046753 0.8717804c0.5581665 0.55818176 0.87176514 1.3152618 0.87176514 2.10466l0 11.9053955c0 1.6438293 -1.3325806 2.9764252 -2.9764404 2.9764252l-99.590454 0c-1.6437988 0 -2.9764404 -1.3325958 -2.9764404 -2.9764252z" fill-rule="evenodd"/><path stroke="#ffffff" stroke-width="1.0" stroke-linejoin="round" stroke-linecap="butt" d="m614.1129 202.45572l0 0c0 -1.6438446 1.3326416 -2.9764404 2.9764404 -2.9764404l99.590454 0c0.7894287 0 1.5464478 0.31358337 2.1046753 0.8717804c0.5581665 0.55818176 0.87176514 1.3152618 0.87176514 2.10466l0 11.9053955c0 1.6438293 -1.3325806 2.9764252 -2.9764404 2.9764252l-99.590454 0c-1.6437988 0 -2.9764404 -1.3325958 -2.9764404 -2.9764252z" fill-rule="evenodd"/><path fill="#ffffff" d="m623.7761 220.32556l-2.86615 0l0 0c-0.7977295 0 -1.5628052 -0.3169098 -2.126892 -0.8809967c-0.5640869 -0.5640869 -0.88098145 -1.3291473 -0.88098145 -2.1268768l0 -3.0078735c0 -4.5776367E-5 0 -7.6293945E-5 6.1035156E-5 -7.6293945E-5l8.881836 7.6293945E-5l0 0c0 0 6.1035156E-5 3.0517578E-5 6.1035156E-5 6.1035156E-5l-6.1035156E-5 3.0078125l0 0c0 1.6611938 -1.3466797 3.0078735 -3.0078735 3.0078735z" fill-rule="evenodd"/><path stroke="#ffffff" stroke-width="1.0" stroke-linejoin="round" stroke-linecap="butt" d="m623.7761 220.32556l-2.86615 0l0 0c-0.7977295 0 -1.5628052 -0.3169098 -2.126892 -0.8809967c-0.5640869 -0.5640869 -0.88098145 -1.3291473 -0.88098145 -2.1268768l0 -3.0078735c0 -4.5776367E-5 0 -7.6293945E-5 6.1035156E-5 -7.6293945E-5l8.881836 7.6293945E-5l0 0c0 0 6.1035156E-5 3.0517578E-5 6.1035156E-5 6.1035156E-5l-6.1035156E-5 3.0078125l0 0c0 1.6611938 -1.3466797 3.0078735 -3.0078735 3.0078735z" fill-rule="evenodd"/><path fill="#ffffff" d="m665.99817 220.32484l-2.86615 0l0 0c-0.7977295 0 -1.5628052 -0.31689453 -2.126892 -0.88098145c-0.5640869 -0.5640869 -0.88098145 -1.3291473 -0.88098145 -2.126892l0 -3.0078735c0 -4.5776367E-5 6.1035156E-5 -7.6293945E-5 6.1035156E-5 -7.6293945E-5l8.881836 7.6293945E-5l0 0c6.1035156E-5 0 6.1035156E-5 3.0517578E-5 6.1035156E-5 7.6293945E-5l-6.1035156E-5 3.0077972l0 0c0 1.6612091 -1.3466797 3.0078735 -3.0078735 3.0078735z" fill-rule="evenodd"/><path stroke="#ffffff" stroke-width="1.0" stroke-linejoin="round" stroke-linecap="butt" d="m665.99817 220.32484l-2.86615 0l0 0c-0.7977295 0 -1.5628052 -0.31689453 -2.126892 -0.88098145c-0.5640869 -0.5640869 -0.88098145 -1.3291473 -0.88098145 -2.126892l0 -3.0078735c0 -4.5776367E-5 6.1035156E-5 -7.6293945E-5 6.1035156E-5 -7.6293945E-5l8.881836 7.6293945E-5l0 0c6.1035156E-5 0 6.1035156E-5 3.0517578E-5 6.1035156E-5 7.6293945E-5l-6.1035156E-5 3.0077972l0 0c0 1.6612091 -1.3466797 3.0078735 -3.0078735 3.0078735z" fill-rule="evenodd"/><path fill="#ffffff" d="m697.84735 220.32484l-2.86615 0l0 0c-0.7977295 0 -1.5628052 -0.31689453 -2.126892 -0.88098145c-0.5640869 -0.5640869 -0.88098145 -1.3291473 -0.88098145 -2.126892l0 -3.0078735c0 -4.5776367E-5 6.1035156E-5 -7.6293945E-5 6.1035156E-5 -7.6293945E-5l8.881836 7.6293945E-5l0 0c6.1035156E-5 0 6.1035156E-5 3.0517578E-5 6.1035156E-5 7.6293945E-5l-6.1035156E-5 3.0077972l0 0c0 1.6612091 -1.3466797 3.0078735 -3.0078735 3.0078735z" fill-rule="evenodd"/><path stroke="#ffffff" stroke-width="1.0" stroke-linejoin="round" stroke-linecap="butt" d="m697.84735 220.32484l-2.86615 0l0 0c-0.7977295 0 -1.5628052 -0.31689453 -2.126892 -0.88098145c-0.5640869 -0.5640869 -0.88098145 -1.3291473 -0.88098145 -2.126892l0 -3.0078735c0 -4.5776367E-5 6.1035156E-5 -7.6293945E-5 6.1035156E-5 -7.6293945E-5l8.881836 7.6293945E-5l0 0c6.1035156E-5 0 6.1035156E-5 3.0517578E-5 6.1035156E-5 7.6293945E-5l-6.1035156E-5 3.0077972l0 0c0 1.6612091 -1.3466797 3.0078735 -3.0078735 3.0078735z" fill-rule="evenodd"/><path fill="#ffffff" d="m649.9733 220.32484l-2.86615 0l0 0c-0.7977295 0 -1.5628052 -0.31689453 -2.126892 -0.88098145c-0.5640869 -0.5640869 -0.88098145 -1.3291473 -0.88098145 -2.126892l0 -3.0078735c0 -4.5776367E-5 6.1035156E-5 -7.6293945E-5 6.1035156E-5 -7.6293945E-5l8.881836 7.6293945E-5l0 0c6.1035156E-5 0 6.1035156E-5 3.0517578E-5 6.1035156E-5 7.6293945E-5l-6.1035156E-5 3.0077972l0 0c0 1.6612091 -1.3466797 3.0078735 -3.0078735 3.0078735z" fill-rule="evenodd"/><path stroke="#ffffff" stroke-width="1.0" stroke-linejoin="round" stroke-linecap="butt" d="m649.9733 220.32484l-2.86615 0l0 0c-0.7977295 0 -1.5628052 -0.31689453 -2.126892 -0.88098145c-0.5640869 -0.5640869 -0.88098145 -1.3291473 -0.88098145 -2.126892l0 -3.0078735c0 -4.5776367E-5 6.1035156E-5 -7.6293945E-5 6.1035156E-5 -7.6293945E-5l8.881836 7.6293945E-5l0 0c6.1035156E-5 0 6.1035156E-5 3.0517578E-5 6.1035156E-5 7.6293945E-5l-6.1035156E-5 3.0077972l0 0c0 1.6612091 -1.3466797 3.0078735 -3.0078735 3.0078735z" fill-rule="evenodd"/><path fill="#ffffff" d="m636.8138 220.15604l-2.86615 0l0 0c-0.7977295 0 -1.5628052 -0.3169098 -2.126892 -0.8809967c-0.5640869 -0.56407166 -0.88098145 -1.3291473 -0.88098145 -2.1268768l0 -3.0078735c0 -4.5776367E-5 6.1035156E-5 -7.6293945E-5 6.1035156E-5 -7.6293945E-5l8.881836 7.6293945E-5l0 0c6.1035156E-5 0 6.1035156E-5 3.0517578E-5 6.1035156E-5 7.6293945E-5l-6.1035156E-5 3.0077972l0 0c0 1.6611938 -1.3466797 3.0078735 -3.0078735 3.0078735z" fill-rule="evenodd"/><path stroke="#ffffff" stroke-width="1.0" stroke-linejoin="round" stroke-linecap="butt" d="m636.8138 220.15604l-2.86615 0l0 0c-0.7977295 0 -1.5628052 -0.3169098 -2.126892 -0.8809967c-0.5640869 -0.56407166 -0.88098145 -1.3291473 -0.88098145 -2.1268768l0 -3.0078735c0 -4.5776367E-5 6.1035156E-5 -7.6293945E-5 6.1035156E-5 -7.6293945E-5l8.881836 7.6293945E-5l0 0c6.1035156E-5 0 6.1035156E-5 3.0517578E-5 6.1035156E-5 7.6293945E-5l-6.1035156E-5 3.0077972l0 0c0 1.6611938 -1.3466797 3.0078735 -3.0078735 3.0078735z" fill-rule="evenodd"/><path fill="#ffffff" d="m681.92236 220.32484l-2.86615 0l0 0c-0.7977295 0 -1.5628052 -0.31689453 -2.126892 -0.88098145c-0.5640869 -0.5640869 -0.88098145 -1.3291473 -0.88098145 -2.126892l0 -3.0078735c0 -4.5776367E-5 6.1035156E-5 -7.6293945E-5 6.1035156E-5 -7.6293945E-5l8.881836 7.6293945E-5l0 0c6.1035156E-5 0 6.1035156E-5 3.0517578E-5 6.1035156E-5 7.6293945E-5l-6.1035156E-5 3.0077972l0 0c0 1.6612091 -1.3466797 3.0078735 -3.0078735 3.0078735z" fill-rule="evenodd"/><path stroke="#ffffff" stroke-width="1.0" stroke-linejoin="round" stroke-linecap="butt" d="m681.92236 220.32484l-2.86615 0l0 0c-0.7977295 0 -1.5628052 -0.31689453 -2.126892 -0.88098145c-0.5640869 -0.5640869 -0.88098145 -1.3291473 -0.88098145 -2.126892l0 -3.0078735c0 -4.5776367E-5 6.1035156E-5 -7.6293945E-5 6.1035156E-5 -7.6293945E-5l8.881836 7.6293945E-5l0 0c6.1035156E-5 0 6.1035156E-5 3.0517578E-5 6.1035156E-5 7.6293945E-5l-6.1035156E-5 3.0077972l0 0c0 1.6612091 -1.3466797 3.0078735 -3.0078735 3.0078735z" fill-rule="evenodd"/><path fill="#000000" fill-opacity="0.0" d="m622.343 220.32556c0 100.79443 39.0 179.51407 78.0 201.58887c39.0 22.074799 78.0 -12.495239 78.0 -24.990448" fill-rule="evenodd"/><path stroke="#ffffff" stroke-width="1.0" stroke-linejoin="round" stroke-linecap="butt" d="m622.343 220.32556c0 100.79443 39.0 179.51407 78.0 201.58887c39.0 22.074799 78.0 -12.495239 78.0 -24.990448" fill-rule="evenodd"/><path fill="#000000" fill-opacity="0.0" d="m635.38074 220.15604c0 100.879 35.740112 179.66354 71.480286 201.75803c35.740173 22.094482 71.48035 -12.501068 71.48035 -25.002136" fill-rule="evenodd"/><path stroke="#ffffff" stroke-width="1.0" stroke-linejoin="round" stroke-linecap="butt" d="m635.38074 220.15604c0 100.879 35.740112 179.66354 71.480286 201.75803c35.740173 22.094482 71.48035 -12.501068 71.48035 -25.002136" fill-rule="evenodd"/><path fill="#000000" fill-opacity="0.0" d="m648.5403 220.32484c0 100.79445 32.44879 179.51405 64.897644 201.58888c32.44879 22.074799 64.897644 -12.495239 64.897644 -24.990448" fill-rule="evenodd"/><path stroke="#ffffff" stroke-width="1.0" stroke-linejoin="round" stroke-linecap="butt" d="m648.5403 220.32484c0 100.79445 32.44879 179.51405 64.897644 201.58888c32.44879 22.074799 64.897644 -12.495239 64.897644 -24.990448" fill-rule="evenodd"/><path fill="#000000" fill-opacity="0.0" d="m664.5651 220.32484c0 100.79445 28.440918 179.51405 56.881897 201.58888c28.440918 22.074799 56.881836 -12.495239 56.881836 -24.990448" fill-rule="evenodd"/><path stroke="#ffffff" stroke-width="1.0" stroke-linejoin="round" stroke-linecap="butt" d="m664.5651 220.32484c0 100.79445 28.440918 179.51405 56.881897 201.58888c28.440918 22.074799 56.881836 -12.495239 56.881836 -24.990448" fill-rule="evenodd"/><path fill="#000000" fill-opacity="0.0" d="m680.4893 220.32484c0 100.79445 24.464539 179.51405 48.92914 201.58888c24.464539 22.074799 48.929077 -12.495239 48.929077 -24.990448" fill-rule="evenodd"/><path stroke="#ffffff" stroke-width="1.0" stroke-linejoin="round" stroke-linecap="butt" d="m680.4893 220.32484c0 100.79445 24.464539 179.51405 48.92914 201.58888c24.464539 22.074799 48.929077 -12.495239 48.929077 -24.990448" fill-rule="evenodd"/><path fill="#000000" fill-opacity="0.0" d="m696.41425 220.32484c0 100.79445 20.480347 179.51405 40.960632 201.58888c20.480347 22.074799 40.960632 -12.495239 40.960632 -24.990448" fill-rule="evenodd"/><path stroke="#ffffff" stroke-width="1.0" stroke-linejoin="round" stroke-linecap="butt" d="m696.41425 220.32484c0 100.79445 20.480347 179.51405 40.960632 201.58888c20.480347 22.074799 40.960632 -12.495239 40.960632 -24.990448" fill-rule="evenodd"/><path fill="#ffffff" d="m761.31244 227.10513l34.362183 0l0 17.291336l-34.362183 0z" fill-rule="evenodd"/><path fill="#ffffff" d="m757.3479 213.25674l41.984253 0l0 14.015747l-41.984253 0z" fill-rule="evenodd"/><path fill="#ffffff" d="m761.1595 244.63928l34.362244 0l0 142.20474l-34.362244 0z" fill-rule="evenodd"/><path stroke="#000000" stroke-width="1.0" stroke-linejoin="round" stroke-linecap="butt" d="m761.1595 244.63928l34.362244 0l0 142.20474l-34.362244 0z" fill-rule="evenodd"/><path fill="#ffffff" d="m768.88794 387.05566l18.897644 0l0 9.858276l-18.897644 0z" fill-rule="evenodd"/><path stroke="#000000" stroke-width="1.0" stroke-linejoin="round" stroke-linecap="butt" d="m768.88794 387.05566l18.897644 0l0 9.858276l-18.897644 0z" fill-rule="evenodd"/><path fill="#000000" fill-opacity="0.0" d="m778.094 396.7504l0.7873535 -162.04724" fill-rule="evenodd"/><path stroke="#000000" stroke-width="8.0" stroke-linejoin="round" stroke-linecap="butt" d="m778.094 396.7504l0.7873535 -162.04724" fill-rule="evenodd"/><path fill="#ffffff" d="m757.3868 74.76295l41.984253 0l0 138.51968l-41.984253 0z" fill-rule="evenodd"/><path stroke="#000000" stroke-width="1.0" stroke-linejoin="round" stroke-linecap="butt" d="m757.3868 74.76295l41.984253 0l0 138.51968l-41.984253 0z" fill-rule="evenodd"/><path fill="#000000" fill-opacity="0.0" d="m778.34064 244.63928l-17.007874 0" fill-rule="evenodd"/><path stroke="#000000" stroke-width="1.0" stroke-linejoin="round" stroke-linecap="butt" d="m778.34064 244.63928l-17.007874 0" fill-rule="evenodd"/><path fill="#000000" fill-opacity="0.0" d="m761.2794 244.34824l0 -17.133865" fill-rule="evenodd"/><path stroke="#000000" stroke-width="1.0" stroke-linejoin="round" stroke-linecap="butt" d="m761.2794 244.34824l0 -17.133865" fill-rule="evenodd"/><path fill="#000000" fill-opacity="0.0" d="m761.4618 226.87035l-4.1259766 0" fill-rule="evenodd"/><path stroke="#000000" stroke-width="1.0" stroke-linejoin="round" stroke-linecap="butt" d="m761.4618 226.87035l-4.1259766 0" fill-rule="evenodd"/><path fill="#000000" fill-opacity="0.0" d="m757.351 227.0115l0 -14.803146" fill-rule="evenodd"/><path stroke="#000000" stroke-width="1.0" stroke-linejoin="round" stroke-linecap="butt" d="m757.351 227.0115l0 -14.803146" fill-rule="evenodd"/><path fill="#000000" fill-opacity="0.0" d="m795.66284 249.97653l0 -23.086609" fill-rule="evenodd"/><path stroke="#000000" stroke-width="1.0" stroke-linejoin="round" stroke-linecap="butt" d="m795.66284 249.97653l0 -23.086609" fill-rule="evenodd"/><path fill="#000000" fill-opacity="0.0" d="m795.54175 226.87106l4.031494 0" fill-rule="evenodd"/><path stroke="#000000" stroke-width="1.0" stroke-linejoin="round" stroke-linecap="butt" d="m795.54175 226.87106l4.031494 0" fill-rule="evenodd"/><path fill="#000000" fill-opacity="0.0" d="m799.2971 226.74197l0 -14.834656" fill-rule="evenodd"/><path stroke="#000000" stroke-width="1.0" stroke-linejoin="round" stroke-linecap="butt" d="m799.2971 226.74197l0 -14.834656" fill-rule="evenodd"/><path fill="#000000" fill-opacity="0.0" d="m778.8116 70.03616l-0.37799072 -44.59842" fill-rule="evenodd"/><path stroke="#ffffff" stroke-width="1.0" stroke-linejoin="round" stroke-linecap="butt" d="m778.8116 70.03616l-0.37799072 -44.59842" fill-rule="evenodd"/><path fill="#000000" fill-opacity="0.0" d="m768.0172 74.99702l-0.03149414 -50.267715" fill-rule="evenodd"/><path stroke="#ffffff" stroke-width="1.0" stroke-linejoin="round" stroke-linecap="butt" d="m768.0172 74.99702l-0.03149414 -50.267715" fill-rule="evenodd"/><path fill="#ffffff" d="m768.2844 64.664l20.189026 0l0 0c2.8901978 0 5.6620483 1.14814 7.7057495 3.1918411c2.0437012 2.0437088 3.1918335 4.8155594 3.1918335 7.7057953l0 10.897636c0 1.9836426E-4 -1.2207031E-4 3.5095215E-4 -3.0517578E-4 3.5095215E-4l-41.983948 -3.5095215E-4l0 0c-1.8310547E-4 0 -3.0517578E-4 -1.5258789E-4 -3.0517578E-4 -3.5095215E-4l3.0517578E-4 -10.897285l0 0c0 -6.0186005 4.8790894 -10.897636 10.897644 -10.897636z" fill-rule="evenodd"/><path stroke="#000000" stroke-width="1.0" stroke-linejoin="round" stroke-linecap="butt" d="m768.2844 64.664l20.189026 0l0 0c2.8901978 0 5.6620483 1.14814 7.7057495 3.1918411c2.0437012 2.0437088 3.1918335 4.8155594 3.1918335 7.7057953l0 10.897636c0 1.9836426E-4 -1.2207031E-4 3.5095215E-4 -3.0517578E-4 3.5095215E-4l-41.983948 -3.5095215E-4l0 0c-1.8310547E-4 0 -3.0517578E-4 -1.5258789E-4 -3.0517578E-4 -3.5095215E-4l3.0517578E-4 -10.897285l0 0c0 -6.0186005 4.8790894 -10.897636 10.897644 -10.897636z" fill-rule="evenodd"/><path fill="#000000" fill-opacity="0.0" d="m778.3789 64.664l0 15.212601" fill-rule="evenodd"/><path stroke="#ffffff" stroke-width="2.0" stroke-linejoin="round" stroke-linecap="butt" d="m778.3789 64.664l0 15.212601" fill-rule="evenodd"/><path fill="#000000" fill-opacity="0.0" d="m768.7838 24.792356l-48.031494 -0.062992096" fill-rule="evenodd"/><path stroke="#ffffff" stroke-width="1.0" stroke-linejoin="round" stroke-linecap="butt" d="m768.7838 24.792356l-48.031494 -0.062992096" fill-rule="evenodd"/><path fill="#ffffff" d="m712.65576 220.32484l-2.86615 0l0 0c-0.7977295 0 -1.5628052 -0.31689453 -2.126892 -0.88098145c-0.5640869 -0.5640869 -0.88098145 -1.3291473 -0.88098145 -2.126892l0 -3.0078735c0 -4.5776367E-5 6.1035156E-5 -7.6293945E-5 1.2207031E-4 -7.6293945E-5l8.881775 7.6293945E-5l0 0c6.1035156E-5 0 6.1035156E-5 3.0517578E-5 6.1035156E-5 7.6293945E-5l-6.1035156E-5 3.0077972l0 0c0 1.6612091 -1.3466797 3.0078735 -3.0078735 3.0078735z" fill-rule="evenodd"/><path stroke="#ffffff" stroke-width="1.0" stroke-linejoin="round" stroke-linecap="butt" d="m712.65576 220.32484l-2.86615 0l0 0c-0.7977295 0 -1.5628052 -0.31689453 -2.126892 -0.88098145c-0.5640869 -0.5640869 -0.88098145 -1.3291473 -0.88098145 -2.126892l0 -3.0078735c0 -4.5776367E-5 6.1035156E-5 -7.6293945E-5 1.2207031E-4 -7.6293945E-5l8.881775 7.6293945E-5l0 0c6.1035156E-5 0 6.1035156E-5 3.0517578E-5 6.1035156E-5 7.6293945E-5l-6.1035156E-5 3.0077972l0 0c0 1.6612091 -1.3466797 3.0078735 -3.0078735 3.0078735z" fill-rule="evenodd"/><path fill="#000000" fill-opacity="0.0" d="m711.2227 220.32484c0 100.79445 16.779541 179.51405 33.55902 201.58888c16.779541 22.074799 33.559082 -12.495239 33.559082 -24.990448" fill-rule="evenodd"/><path stroke="#ffffff" stroke-width="1.0" stroke-linejoin="round" stroke-linecap="butt" d="m711.2227 220.32484c0 100.79445 16.779541 179.51405 33.55902 201.58888c16.779541 22.074799 33.559082 -12.495239 33.559082 -24.990448" fill-rule="evenodd"/><path fill="#000000" fill-opacity="0.0" d="m380.09583 224.48639l321.07086 0l0 42.015747l-321.07086 0z" fill-rule="evenodd"/><path fill="#000000" fill-opacity="0.0" d="m826.46625 24.792356l-48.031494 -0.062992096" fill-rule="evenodd"/><path stroke="#ffffff" stroke-width="1.0" stroke-linejoin="round" stroke-linecap="butt" d="m826.46625 24.792356l-48.031494 -0.062992096" fill-rule="evenodd"/><path fill="#000000" fill-opacity="0.0" d="m841.2913 237.8819l-51.18109 0.1574707" fill-rule="evenodd"/><path stroke="#ffffff" stroke-width="1.0" stroke-linejoin="round" stroke-linecap="butt" d="m841.2913 237.8819l-51.18109 0.1574707" fill-rule="evenodd"/><path fill="#000000" fill-opacity="0.0" d="m873.3333 215.55643l-82.614136 0.31495667" fill-rule="evenodd"/><path stroke="#ffffff" stroke-width="1.0" stroke-linejoin="round" stroke-linecap="butt" d="m873.3333 215.55643l-82.614136 0.31495667" fill-rule="evenodd"/><path fill="#000000" fill-opacity="0.0" d="m841.2913 237.38058l0 69.165344" fill-rule="evenodd"/><path stroke="#ffffff" stroke-width="1.0" stroke-linejoin="round" stroke-linecap="butt" d="m841.2913 237.38058l0 69.165344" fill-rule="evenodd"/></g></svg>