<svg xmlns="http://www.w3.org/2000/svg" viewBox="0 0 631.78 379.21"><defs><style>.cls-1{fill:#fff;}</style></defs><g id="Layer_2" data-name="Layer 2"><g id="Layer_1-2" data-name="Layer 1"><g id="Vertical_White" data-name="Vertical White"><path id="Arch" class="cls-1" d="M405.59,263.3c-90.35,11-165.45,56.39-204.62,115.91,42.38-52.6,117.3-92.65,206.17-103.48,88.67-10.82,170.86,9.94,224.64,50.64C579.43,278.19,495.78,252.3,405.59,263.3Z"/><g id="Eclipse"><path class="cls-1" d="M279.71,176.81a6.87,6.87,0,0,1,.18-2.63c6.12-.22,12.25-.16,18.37,0a18.91,18.91,0,0,1,5.52,1,11.85,11.85,0,0,1,8.38,8.92,20.29,20.29,0,0,1,.57,4.74q0,21.65,0,43.29a21.17,21.17,0,0,1-.63,5.27c-1.34,5.44-5,8.77-10.8,10a20.72,20.72,0,0,1-5.32.53c-1.15-.06-1.46.4-1.45,1.39,0,3.36.07,6.73,0,10.09,0,1.26.59,1.44,1.7,1.42a55.41,55.41,0,0,0,9.28-.75c11.26-2.12,18.52-8.17,21.08-18.88a40.39,40.39,0,0,0,1-9.48q0-21.24,0-42.5a37.9,37.9,0,0,0-.68-7.66c-2.06-9.95-8.07-16.52-18.62-19.23a48.34,48.34,0,0,0-11.74-1.39q-14.15,0-28.28,0c-4,0-3.51-.46-3.51,3.17q0,75.18,0,150.35c0,.28,0,.55,0,.83q7.26-5,15-9.6Q279.65,241.25,279.71,176.81Z"/><path class="cls-1" d="M6.51,242.62V164.53a16.48,16.48,0,0,0,0-1.86c-.17-1.46.57-1.77,2-1.76q24.32.06,48.64,0c1.32,0,1.85.31,1.81,1.63-.08,3.27-.1,6.55,0,9.82,0,1.46-.54,1.74-2,1.73-10.56-.05-21.11,0-31.67,0h-1.7c-2.29,0-2.14,0-2.14,2q0,28.95,0,57.9c0,2,0,2,2.18,2,4.9,0,9.8,0,14.71,0,2,0,2,.05,2,1.89,0,3.18,0,6.37,0,9.56,0,1.3-.45,1.66-1.79,1.64-5-.06-10,0-15,0-2.15,0-2.19,0-2.19,2q0,28.95,0,57.91c0,2.06,0,2.08,2.37,2.08H56.11c.66,0,1.32,0,2,0,.93-.06,1.37.22,1.36,1.19q-.06,5.31,0,10.62c0,1-.4,1.46-1.49,1.38-.56,0-1.13,0-1.69,0H9.6c-.56,0-1.13,0-1.69,0-.93,0-1.41-.32-1.4-1.23,0-.7,0-1.41,0-2.12Z"/><path class="cls-1" d="M211.38,324.35c1.46,0,2-.38,1.94-1.79-.09-3.09,0-6.19,0-9.29,0-2.1,0-2.12-2.31-2.12-9.9,0-19.8,0-29.69,0-4,0-3.5.52-3.5-3.18q0-71.7,0-143.41c0-.71-.05-1.42,0-2.13.09-1.16-.45-1.52-1.65-1.51-3.87.05-7.73.05-11.6,0-1.15,0-1.81.23-1.69,1.46.06.61,0,1.23,0,1.85v157.5c0,2.85-.16,2.59,2.72,2.59H194.7C200.26,324.32,205.82,324.28,211.38,324.35Z"/><path class="cls-1" d="M231.82,324.34c3.2-.06,6.41,0,9.61,0,4.09-.05,3.66.61,3.66-3.32q0-78.36,0-156.73c0-.62,0-1.24,0-1.86.1-1.17-.48-1.51-1.67-1.5-3.86.05-7.73.05-11.59,0-1.17,0-1.8.28-1.68,1.48.06.62,0,1.24,0,1.86V321c0,.62.05,1.25,0,1.86C230.05,324,230.62,324.36,231.82,324.34Z"/><path class="cls-1" d="M76.36,274.73q0-12.62,0-25.23c0-2,0-2,2.17-2q5.37,0,10.74,0c2,0,2,0,2.06,1.88,0,4.7,0,9.39,0,14.08q0,16.74,0,33.47a24,24,0,0,0,.69,6.31c1.38,5.15,5,8,10.4,8.89a51.73,51.73,0,0,0,16,0c6.83-1.09,10.68-5.73,11-12.9.11-2.74,0-5.49,0-8.23q0-13.28,0-26.56c0-2,0-2.05,2.13-2.06,3.58,0,7.16.06,10.74,0,1.51,0,1.91.45,1.9,1.81,0,8.06,0,16.11,0,24.17,0,5.22.34,10.45-.53,15.64a28.24,28.24,0,0,1-3.25,9.55c-3.67,6.38-9.59,10-17,11.22a72.53,72.53,0,0,1-27-.16c-11.34-2.36-18-9.55-19.61-20.37a53.94,53.94,0,0,1-.57-7.93C76.38,289.07,76.36,281.9,76.36,274.73Z"/><path class="cls-1" d="M377.06,230.83c-3.53,3.31-6.92,6.49-10.3,9.68a1,1,0,0,1-1.46.06c-5.11-3.63-10.45-7-14.3-11.95A27.63,27.63,0,0,1,345.14,212c-.21-9.2-.1-18.41,0-27.62a26.65,26.65,0,0,1,1.32-7.58c2.51-8.39,8.32-13.82,17.27-15.86a63.13,63.13,0,0,1,27.19-.2c11.1,2.35,17.67,9.46,19.19,20.07a51.92,51.92,0,0,1,.55,7.68c0,8.59,0,17.17,0,25.76,0,2,0,2-2.19,2q-5.22,0-10.46,0c-2,0-2,0-2-1.86,0-4.87,0-9.74,0-14.61,0-4.16,0-8.32,0-12.48a20.68,20.68,0,0,0-.41-4.22c-1.12-5.69-4.74-9.12-10.83-10a45.72,45.72,0,0,0-13.52,0c-6.28.93-10,4.63-10.92,10.56a28.48,28.48,0,0,0-.32,4.23c0,6.55.11,13.11,0,19.66A19.6,19.6,0,0,0,368.78,225C371.48,226.85,374.16,228.77,377.06,230.83Z"/><path class="cls-1" d="M76.36,208.69c0-6.91,0-13.81,0-20.71a38.3,38.3,0,0,1,1.21-10c2.38-8.92,8.24-14.89,17.78-17a68.53,68.53,0,0,1,28.59-.25c11.08,2.19,17.55,9.23,19.19,19.72a49.36,49.36,0,0,1,.6,7.67v27.62c0,2.27,0,2.29-2.47,2.3q-5,0-9.89,0c-2.37,0-2.39,0-2.39-2.37q0-14,0-27.89a21,21,0,0,0-.44-4.74c-1.31-5.76-5.08-9.16-11.27-10a54.44,54.44,0,0,0-14.37,0c-6.4.87-10.49,4.84-11.26,10.89a37.77,37.77,0,0,0-.27,4.76q0,21.12,0,42.22c0,.54,0,1.07,0,1.6-.06,2-.06,2-2.24,2q-5.37,0-10.74,0c-2,0-2-.05-2-1.94C76.35,224.62,76.36,216.66,76.36,208.69Z"/><path class="cls-1" d="M444.77,251.41c0-2.26,0-2.28,2.51-2.28,4.8,0,9.61-.06,14.41,0,1.54,0,1.93-.49,1.88-1.82-.09-2.57,0-5.14,0-7.7,0-3.58,0-3.59-3.93-3.59H447.47c-2.69,0-2.69,0-2.7-2.64V176.87c0-3.15-.31-2.76,3.08-2.76h32.5c2,0,2,0,2-1.85q0-4.65,0-9.29c0-2,0-2-2.2-2q-13.14,0-26.29,0H432.72c-3.15,0-2.81-.23-2.82,2.77,0,.44,0,.88,0,1.32q0,25.23,0,50.44c0,1-.09,1.94-.13,2.9.35,5.66.11,11.32.15,17,0,8.14,0,16.28,0,24.42a3.38,3.38,0,0,0,.19,1.57q7.36-.36,14.66-.38C444.77,257.77,444.76,254.59,444.77,251.41Z"/><path class="cls-1" d="M410.08,262.93a26,26,0,0,0-6.91-13c-4-4.28-9.12-7.35-13.9-10.78a1.17,1.17,0,0,0-1.71.08c-3.36,3.18-6.74,6.34-10.08,9.47a6.35,6.35,0,0,0,2.22,1.91c3.26,2.4,6.73,4.53,9.77,7.18a17.19,17.19,0,0,1,5.23,7.1c3.56-.55,7.14-1.07,10.75-1.51C407,263.24,408.53,263.09,410.08,262.93Z"/><path class="cls-1" d="M359.18,272c.08-2.46-.25-4.94.19-7.39-.19-.51-.63-.58-1.11-.58H346c-.48,0-.92.07-1.1.57.48,3.89,0,7.8.28,11.88q6.92-2.18,14-4.07Z"/></g><g id="RICE"><path class="cls-1" d="M175.8,107.42a60.9,60.9,0,0,1-19.19-47.17A63.25,63.25,0,0,1,174.54,17C184.11,7.41,198.45,0,223,0a135.42,135.42,0,0,1,23,1.91,135.21,135.21,0,0,0,16.14,2.33c1.74,0,2.1.84,2.1,1.8s-.48,3.17-.78,8.84-.36,14-.48,16.32-.48,3.35-1.43,3.35-1.32-1.08-1.32-3.35a21.92,21.92,0,0,0-6.63-16.14,52.62,52.62,0,0,0-31.92-8.6c-21.1,0-30.91,6-36.47,11.53C173.59,29.11,170.9,43.22,170.9,59.42a57.26,57.26,0,0,0,56.48,58h.78c12,0,21.28-1.44,27.62-7.89a30.48,30.48,0,0,0,6-13.33c.3-1.8.66-2.39,1.62-2.39s1.07,1.07,1.07,2.39A169.43,169.43,0,0,1,261,116.5c-1,3-1.32,3.35-4.13,4.6a90.8,90.8,0,0,1-28.57,3.65C204.37,124.51,188.35,118.65,175.8,107.42Z"/><path class="cls-1" d="M292.9,48.3c0-24.75,0-29.17-.36-34.25S291,6.16,285.72,5a32.22,32.22,0,0,0-5.38-.48c-.65,0-1.25,0-1.25-1s.78-1.26,2.51-1.26c7.17,0,17.16.48,17.93.48h36.35A48.8,48.8,0,0,0,342.69,2c.78,0,1.43-.77,2.21-.77s.66.59.66,1.37-.84,3.05-1.32,7.47c0,1.62-.41,8.61-.77,10.46,0,.84-.48,1.8-1.08,1.8s-1.31-.84-1.31-2.1a15.65,15.65,0,0,0-1-5.67C339,12,337.43,10.1,328.88,9.15c-2.69,0-20-.48-21.76-.48-.59,0-.89.48-.89,1.61V54c0,1.13,0,1.61.89,1.61,2.1,0,21.58,0,25.23-.3s6-.66,7.47-2.27,1.73-2,2.39-2,.78,0,.78,1.25-.78,3.65-1.26,8.91c0,3.17-.65,9-.65,10.16s0,3-1.08,3-1.14-.66-1.14-1.43a16.87,16.87,0,0,0-.59-5.2c-.66-2.28-2.1-5-8.25-5.56-4.31-.48-20-.84-22.72-.84a1,1,0,0,0-1.08,1,1.28,1.28,0,0,0,0,.19v41.06c.48,10.94,2.81,13,18.35,13a45.76,45.76,0,0,0,15.3-1.85c4.13-1.73,6-5,7.17-11.42,0-1.79.6-2.39,1.38-2.39s1,1.26,1,2.39-1.26,12-2,15.36-2.39,4.13-8.55,4.13c-23.91,0-34.6-1-39.21-1-.77,0-10.76.48-15.54.48-1.73,0-2.51-.3-2.51-1.26s.3-1,1.26-1a21,21,0,0,0,4.72-.66c3.17-.6,4-4.12,4.6-8.73.84-6.63.84-19.18.84-34.37Z"/><path class="cls-1" d="M112.74,119.13a14.86,14.86,0,0,1-6-1A38,38,0,0,1,93,108.07c-9.21-9.86-20-23.91-33-40.58C74.24,54.28,79.14,42.56,79.14,30.84A27.63,27.63,0,0,0,68.2,9.27a48.83,48.83,0,0,0-29.05-7c-4.9,0-17,.48-18.71.48-.77,0-10.82-.48-17.93-.48C.78,2.27,0,2.27,0,3.53s.6,1,1.26,1A32.41,32.41,0,0,1,6.64,5c5.26,1.14,6.51,3.65,6.81,9s0,9.5,0,34.25v28c0,15.19,0,27.74-.78,34.37-.6,4.61-1.43,8.13-4.6,8.73a22.19,22.19,0,0,1-4.72.66c-1,0-1.32.48-1.32,1s.84,1.25,2.57,1.25c4.72,0,14.77-.48,14.89-.48s10.82.48,19.54.48c1.74,0,2.51-.48,2.51-1.25s-.3-1-1.25-1a60.41,60.41,0,0,1-7.11-.66c-4.79-.6-6-4.12-6-8.73-.78-6.63-.78-19.18-.78-34.37V72.39c0-.78,0-1.26,1.08-1.26l19.54.3a2.4,2.4,0,0,1,2,1c3.16,4.12,10.64,14.76,17.27,23.49,9.09,12,14.65,19.67,21.46,23.31a32.35,32.35,0,0,0,17,3h4.66c4.72,0,14.7-.48,15.54-.48s10.76.48,19.49.48c1.73,0,2.57-.48,2.57-1.25s-.36-1-1.32-1a60.41,60.41,0,0,1-7.11-.66c-4.78-.6-6-4.12-6-8.73-.78-6.63-.78-19.18-.78-34.37V48.3c0-24.75,0-29.17.36-34.25s1.56-8.25,6-9a22.69,22.69,0,0,1,4.18-.48,1,1,0,0,0,1-1c0-.9-.84-1.2-2.51-1.2-4.78,0-14.76.48-15.54.48s-10.82-.48-16-.48c-1.79,0-2.57,0-2.57,1.26s.66,1,1.25,1a20.71,20.71,0,0,1,5,.66c3.47.78,5.09,3.47,5.38,8.85s.3,9.5.3,34.25v28c0,15.19,0,27.74-.77,34.37a21.61,21.61,0,0,1-1.5,6,4.05,4.05,0,0,1-3.58,2.27ZM56.37,63.6a20.23,20.23,0,0,1-12,3.05,43.59,43.59,0,0,1-16.67-2.57,2,2,0,0,1-1.08-1.91V10.34a1.92,1.92,0,0,1,1.25-1.91,47.52,47.52,0,0,1,10.64-1c17,0,27.44,12,27.44,31.74-.18,12-4.3,20.63-9.86,24.39Z"/></g></g></g></g></svg>