<?xml version="1.0" encoding="UTF-8"?>
<svg id="Layer_1" xmlns="http://www.w3.org/2000/svg" version="1.1" xmlns:xlink="http://www.w3.org/1999/xlink" viewBox="0 0 1615.47 793.21">
  <!-- Generator: Adobe Illustrator 29.5.1, SVG Export Plug-In . SVG Version: 2.1.0 Build 141)  -->
  <defs>
    <style>
      .st0, .st1, .st2, .st3, .st4, .st5, .st6, .st7, .st8 {
        fill-rule: evenodd;
      }

      .st0, .st9, .st10, .st11, .st12, .st13, .st14, .st4, .st15, .st16 {
        fill: none;
      }

      .st0, .st11, .st12, .st13, .st17, .st3, .st5, .st6, .st16 {
        stroke: #fff;
      }

      .st0, .st13, .st3, .st5, .st6 {
        stroke-miterlimit: 10;
      }

      .st1 {
        fill: #fce5cd;
      }

      .st9, .st10, .st11, .st12, .st17, .st15, .st16 {
        stroke-linejoin: round;
      }

      .st9, .st10, .st15 {
        stroke: #000;
      }

      .st9, .st11 {
        stroke-width: 3px;
      }

      .st18, .st2, .st17, .st3, .st6, .st7 {
        fill: #fff;
      }

      .st10, .st16 {
        stroke-dasharray: 4 3;
      }

      .st3, .st5, .st7, .st8 {
        fill-opacity: 0;
      }

      .st19 {
        fill: #231f20;
      }

      .st20 {
        clip-path: url(#clippath);
      }
    </style>
    <clipPath id="clippath">
      <rect class="st14" width="1615.47" height="793.21"/>
    </clipPath>
  </defs>
  <g class="st20">
    <g>
      <path class="st2" d="M130.33,406.05h0c6.76,0,13.24,2.68,18.02,7.46,4.78,4.78,7.46,11.26,7.46,18.02v118.33s0,0,0,0h-50.96s0,0,0,0v-118.33c0-14.07,11.41-25.48,25.48-25.48Z"/>
      <path class="st14" d="M130.33,406.05h0c6.76,0,13.24,2.68,18.02,7.46,4.78,4.78,7.46,11.26,7.46,18.02v118.33s0,0,0,0h-50.96s0,0,0,0v-118.33c0-14.07,11.41-25.48,25.48-25.48Z"/>
      <path d="M121.52,488.61v-13.36h2.62l5.45,8.92v-8.92h2.52v13.36h-2.7l-5.39-8.7v8.7h-2.5Z"/>
      <path d="M139.9,494.03v1.58h-5.98c.06-.6.26-1.17.58-1.7.32-.54.96-1.26,1.92-2.14.77-.71,1.24-1.19,1.42-1.45.23-.35.34-.7.34-1.05,0-.38-.1-.67-.31-.88-.2-.21-.48-.31-.84-.31s-.64.11-.84.33-.33.57-.38,1.06l-1.69-.16c.09-.95.41-1.62.94-2.03.54-.41,1.21-.61,2.02-.61.88,0,1.56.24,2.06.72.51.47.77,1.05.77,1.75,0,.41-.07.79-.22,1.16-.15.36-.38.74-.69,1.14-.21.26-.58.64-1.12,1.14-.53.49-.87.82-1.02.98-.15.16-.26.31-.34.47h3.39Z"/>
      <path class="st8" d="M132.92,277.13l-2.58,128.91"/>
      <path class="st12" d="M132.92,277.13l-2.58,128.91"/>
      <path class="st1" d="M215.44,349.84v26.85l-22.36-13.43-22.36,13.43v-26.85l22.36,13.43,22.36-13.43Z"/>
      <path class="st17" d="M215.44,349.84v26.85l-22.36-13.43-22.36,13.43v-26.85l22.36,13.43,22.36-13.43Z"/>
      <path class="st8" d="M193.04,362.27l.09-21.13"/>
      <path class="st12" d="M193.04,362.27l.09-21.13"/>
      <path class="st2" d="M176.85,342.45c2.95-6.49,9.73-10.77,17.02-10.75s13.57,4.34,15.76,10.84l-32.78-.08Z"/>
      <path class="st14" d="M176.85,342.45c2.95-6.49,9.73-10.77,17.02-10.75s13.57,4.34,15.76,10.84l-32.78-.08Z"/>
      <path class="st1" d="M146.34,277.13h-26.85l13.43-22.36-13.43-22.36h26.85l-13.43,22.36,13.43,22.36Z"/>
      <path class="st18" d="M146.34,277.13h-26.85l13.43-22.36-13.43-22.36h26.85l-13.43,22.36,13.43,22.36Z"/>
      <path class="st8" d="M135.57,254.72l21.13.09"/>
      <path class="st18" d="M135.57,254.72l21.13.09"/>
      <path class="st2" d="M149.67,238.72c6.49,2.95,10.77,9.73,10.75,17.02-.02,7.29-4.34,13.57-10.84,15.76l.08-32.78Z"/>
      <path class="st18" d="M149.67,238.72c6.49,2.95,10.77,9.73,10.75,17.02-.02,7.29-4.34,13.57-10.84,15.76l.08-32.78Z"/>
      <path class="st2" d="M188.43,188.12c0-3.04,2.46-5.5,5.5-5.5h60.49c1.46,0,2.86.58,3.89,1.61,1.03,1.03,1.61,2.43,1.61,3.89v22.01c0,3.04-2.46,5.5-5.5,5.5h-60.49c-3.04,0-5.5-2.46-5.5-5.5v-22.01Z"/>
      <path class="st14" d="M188.43,188.12c0-3.04,2.46-5.5,5.5-5.5h60.49c1.46,0,2.86.58,3.89,1.61,1.03,1.03,1.61,2.43,1.61,3.89v22.01c0,3.04-2.46,5.5-5.5,5.5h-60.49c-3.04,0-5.5-2.46-5.5-5.5v-22.01Z"/>
      <path class="st2" d="M204.04,226.71h-3.72c-1.47,0-2.88-.58-3.92-1.62-1.04-1.04-1.62-2.45-1.62-3.92v-5.54s0,0,0,0h14.8s0,0,0,0v5.54c0,3.06-2.48,5.54-5.54,5.54Z"/>
      <path class="st14" d="M204.04,226.71h-3.72c-1.47,0-2.88-.58-3.92-1.62-1.04-1.04-1.62-2.45-1.62-3.92v-5.54s0,0,0,0h14.8s0,0,0,0v5.54c0,3.06-2.48,5.54-5.54,5.54Z"/>
      <path class="st2" d="M247.76,226.71h-3.72c-1.47,0-2.88-.58-3.92-1.62-1.04-1.04-1.62-2.45-1.62-3.92v-5.54s0,0,0,0h14.8s0,0,0,0v5.54c0,3.06-2.48,5.54-5.54,5.54Z"/>
      <path class="st14" d="M247.76,226.71h-3.72c-1.47,0-2.88-.58-3.92-1.62-1.04-1.04-1.62-2.45-1.62-3.92v-5.54s0,0,0,0h14.8s0,0,0,0v5.54c0,3.06-2.48,5.54-5.54,5.54Z"/>
      <path class="st2" d="M225.8,226.4h-3.72c-1.47,0-2.88-.58-3.92-1.62-1.04-1.04-1.62-2.45-1.62-3.92v-5.54s0,0,0,0h14.8s0,0,0,0v5.54c0,3.06-2.48,5.54-5.54,5.54Z"/>
      <path class="st14" d="M225.8,226.4h-3.72c-1.47,0-2.88-.58-3.92-1.62-1.04-1.04-1.62-2.45-1.62-3.92v-5.54s0,0,0,0h14.8s0,0,0,0v5.54c0,3.06-2.48,5.54-5.54,5.54Z"/>
      <path class="st0" d="M132.92,232.41v-33.29h55.53"/>
      <path class="st12" d="M132.92,232.41v-33.29h55.53"/>
      <path class="st8" d="M270.94,418.8h38.24"/>
      <path class="st15" d="M309.18,418.8"/>
      <path class="st15" d="M270.94,418.8"/>
      <path class="st8" d="M351.6,353.87v-14.39"/>
      <path class="st2" d="M765.95,242.99h3.72c1.47,0,2.88.58,3.92,1.62,1.04,1.04,1.62,2.45,1.62,3.92v5.54s0,0,0,0h-14.8s0,0,0,0v-5.54c0-3.06,2.48-5.54,5.54-5.54Z"/>
      <path class="st14" d="M765.95,242.99h3.72c1.47,0,2.88.58,3.92,1.62,1.04,1.04,1.62,2.45,1.62,3.92v5.54s0,0,0,0h-14.8s0,0,0,0v-5.54c0-3.06,2.48-5.54,5.54-5.54Z"/>
      <path class="st8" d="M215.43,363.27h115.4"/>
      <path class="st12" d="M215.43,363.27h115.4"/>
      <path class="st3" d="M290.26,399.46h.16v-36.19h40.41"/>
      <path class="st12" d="M290.26,399.46h.16v-36.19h40.41"/>
      <path class="st8" d="M170.73,363.27h-40.41v42.77"/>
      <path class="st12" d="M170.73,363.27h-40.41v42.77"/>
      <path class="st2" d="M768.4,254.04h0c6.76,0,13.24,2.68,18.02,7.46,4.78,4.78,7.46,11.26,7.46,18.02v118.33s0,0,0,0h-50.96s0,0,0,0v-118.33c0-14.07,11.41-25.48,25.48-25.48Z"/>
      <path class="st14" d="M768.4,254.04h0c6.76,0,13.24,2.68,18.02,7.46,4.78,4.78,7.46,11.26,7.46,18.02v118.33s0,0,0,0h-50.96s0,0,0,0v-118.33c0-14.07,11.41-25.48,25.48-25.48Z"/>
      <path class="st2" d="M760.22,477.9h3.72c1.47,0,2.88.58,3.92,1.62,1.04,1.04,1.62,2.45,1.62,3.92v5.54s0,0,0,0h-14.8s0,0,0,0v-5.54c0-3.06,2.48-5.54,5.54-5.54Z"/>
      <path class="st14" d="M760.22,477.9h3.72c1.47,0,2.88.58,3.92,1.62,1.04,1.04,1.62,2.45,1.62,3.92v5.54s0,0,0,0h-14.8s0,0,0,0v-5.54c0-3.06,2.48-5.54,5.54-5.54Z"/>
      <path class="st2" d="M514.75,208.94l20.43,12-20.39,12-.03-24Z"/>
      <path class="st12" d="M514.75,208.94l20.43,12-20.39,12-.03-24Z"/>
      <path class="st8" d="M535.19,209.32l.03,24"/>
      <path class="st12" d="M535.19,209.32l.03,24"/>
      <path class="st2" d="M680.9,230.69v-19.05l15.78,9.52,15.78-9.52v19.05l-15.78-9.52-15.78,9.52Z"/>
      <path class="st14" d="M680.9,230.69v-19.05l15.78,9.52,15.78-9.52v19.05l-15.78-9.52-15.78,9.52Z"/>
      <path class="st1" d="M704.56,221.16c0,3.93-3.53,7.12-7.89,7.12s-7.89-3.19-7.89-7.12,3.53-7.12,7.89-7.12,7.89,3.19,7.89,7.12Z"/>
      <path class="st18" d="M704.56,221.16c0,3.93-3.53,7.12-7.89,7.12s-7.89-3.19-7.89-7.12,3.53-7.12,7.89-7.12,7.89,3.19,7.89,7.12Z"/>
      <path class="st1" d="M610.41,230.38v-19.05l15.78,9.52,15.78-9.52v19.05l-15.78-9.52-15.78,9.52Z"/>
      <path class="st18" d="M610.41,230.38v-19.05l15.78,9.52,15.78-9.52v19.05l-15.78-9.52-15.78,9.52Z"/>
      <path class="st1" d="M634.08,220.85c0,3.93-3.53,7.12-7.89,7.12s-7.89-3.19-7.89-7.12,3.53-7.12,7.89-7.12,7.89,3.19,7.89,7.12Z"/>
      <path class="st18" d="M634.08,220.85c0,3.93-3.53,7.12-7.89,7.12s-7.89-3.19-7.89-7.12,3.53-7.12,7.89-7.12,7.89,3.19,7.89,7.12Z"/>
      <path class="st1" d="M565.1,248.53h19.05l-9.52,15.78,9.52,15.78h-19.05l9.52-15.78-9.52-15.78Z"/>
      <path class="st18" d="M565.1,248.53h19.05l-9.52,15.78,9.52,15.78h-19.05l9.52-15.78-9.52-15.78Z"/>
      <path class="st2" d="M574.62,272.2c-3.93,0-7.12-3.53-7.12-7.89s3.19-7.89,7.12-7.89,7.12,3.53,7.12,7.89-3.19,7.89-7.12,7.89Z"/>
      <path class="st14" d="M574.62,272.2c-3.93,0-7.12-3.53-7.12-7.89s3.19-7.89,7.12-7.89,7.12,3.53,7.12,7.89-3.19,7.89-7.12,7.89Z"/>
      <path class="st1" d="M680.9,466.11v-19.05l15.78,9.52,15.78-9.52v19.05l-15.78-9.52-15.78,9.52Z"/>
      <path class="st18" d="M680.9,466.11v-19.05l15.78,9.52,15.78-9.52v19.05l-15.78-9.52-15.78,9.52Z"/>
      <path class="st1" d="M704.56,456.58c0,3.93-3.53,7.12-7.89,7.12s-7.89-3.19-7.89-7.12,3.53-7.12,7.89-7.12,7.89,3.19,7.89,7.12Z"/>
      <path class="st18" d="M704.56,456.58c0,3.93-3.53,7.12-7.89,7.12s-7.89-3.19-7.89-7.12,3.53-7.12,7.89-7.12,7.89,3.19,7.89,7.12Z"/>
      <path class="st2" d="M610.41,465.79v-19.05l15.78,9.52,15.78-9.52v19.05l-15.78-9.52-15.78,9.52Z"/>
      <path class="st14" d="M610.41,465.79v-19.05l15.78,9.52,15.78-9.52v19.05l-15.78-9.52-15.78,9.52Z"/>
      <path class="st2" d="M634.08,456.27c0,3.93-3.53,7.12-7.89,7.12s-7.89-3.19-7.89-7.12,3.53-7.12,7.89-7.12,7.89,3.19,7.89,7.12Z"/>
      <path class="st14" d="M634.08,456.27c0,3.93-3.53,7.12-7.89,7.12s-7.89-3.19-7.89-7.12,3.53-7.12,7.89-7.12,7.89,3.19,7.89,7.12Z"/>
      <path class="st2" d="M565.1,403.02h19.05l-9.52,15.78,9.52,15.78h-19.05l9.52-15.78-9.52-15.78Z"/>
      <path class="st14" d="M565.1,403.02h19.05l-9.52,15.78,9.52,15.78h-19.05l9.52-15.78-9.52-15.78Z"/>
      <path class="st2" d="M574.62,426.69c-3.93,0-7.12-3.53-7.12-7.89s3.19-7.89,7.12-7.89,7.12,3.53,7.12,7.89-3.19,7.89-7.12,7.89Z"/>
      <path class="st14" d="M574.62,426.69c-3.93,0-7.12-3.53-7.12-7.89s3.19-7.89,7.12-7.89,7.12,3.53,7.12,7.89-3.19,7.89-7.12,7.89Z"/>
      <path class="st2" d="M513.34,444.58l20.43,12-20.39,12-.03-24Z"/>
      <path class="st12" d="M513.34,444.58l20.43,12-20.39,12-.03-24Z"/>
      <path class="st8" d="M533.78,444.58l.03,24"/>
      <path class="st12" d="M533.78,444.58l.03,24"/>
      <path class="st8" d="M837.02,282.42h38.24"/>
      <path class="st2" d="M1256.13,476.27l20.43,12-20.39,12-.03-24Z"/>
      <path class="st12" d="M1256.13,476.27l20.43,12-20.39,12-.03-24Z"/>
      <path class="st2" d="M1265.05,509.49l12-21.62,12,21.59-24,.03Z"/>
      <path class="st12" d="M1265.05,509.49l12-21.62,12,21.59-24,.03Z"/>
      <path class="st8" d="M1282.63,489.03h3.84"/>
      <path class="st12" d="M1282.63,489.03h3.84"/>
      <path class="st8" d="M1286.48,489.35l2.77-8.35"/>
      <path class="st12" d="M1286.48,489.35l2.77-8.35"/>
      <path class="st8" d="M1289.25,481.98l2.99,14.11"/>
      <path class="st12" d="M1289.25,481.98l2.99,14.11"/>
      <path class="st8" d="M1293.26,496.79l3.84-14.74"/>
      <path class="st12" d="M1293.26,496.79l3.84-14.74"/>
      <path class="st8" d="M1296.41,481.66l3.84,14.74"/>
      <path class="st12" d="M1296.41,481.66l3.84,14.74"/>
      <path class="st6" d="M1274.93,482.5c4.24,0,7.68,3.01,7.67,6.72,0,1.78-.82,3.49-2.26,4.75-1.44,1.26-3.4,1.97-5.44,1.97-4.24,0-7.68-3.01-7.67-6.72,0-3.71,3.46-6.72,7.7-6.72Z"/>
      <path class="st12" d="M1274.93,482.5c4.24,0,7.68,3.01,7.67,6.72,0,1.78-.82,3.49-2.26,4.75-1.44,1.26-3.4,1.97-5.44,1.97-4.24,0-7.68-3.01-7.67-6.72,0-3.71,3.46-6.72,7.7-6.72Z"/>
      <path class="st2" d="M1287.44,246.77l20.43,12-20.39,12-.03-24Z"/>
      <path class="st14" d="M1287.44,246.77l20.43,12-20.39,12-.03-24Z"/>
      <path class="st1" d="M1296.76,280.5l12-21.62,12,21.59-24,.03Z"/>
      <path class="st18" d="M1296.76,280.5l12-21.62,12,21.59-24,.03Z"/>
      <path class="st8" d="M1316.61,255.07h3.84"/>
      <path class="st12" d="M1316.61,255.07h3.84"/>
      <path class="st8" d="M1322.91,256.88l2.77-8.35"/>
      <path class="st13" d="M1322.91,256.88l2.77-8.35"/>
      <path class="st8" d="M1327.51,247.72l2.99,14.11"/>
      <path class="st13" d="M1327.51,247.72l2.99,14.11"/>
      <path class="st8" d="M1331.27,262.14l3.84-14.74"/>
      <path class="st13" d="M1331.27,262.14l3.84-14.74"/>
      <path class="st8" d="M1333.68,247.4l3.84,14.74"/>
      <path class="st13" d="M1333.68,247.4l3.84,14.74"/>
      <path class="st2" d="M1309.62,251.06c4.24,0,7.68,3.01,7.67,6.72,0,1.78-.82,3.49-2.26,4.75s-3.4,1.97-5.44,1.97c-4.24,0-7.68-3.01-7.67-6.72,0-3.71,3.46-6.72,7.7-6.72Z"/>
      <path class="st14" d="M1309.62,251.06c4.24,0,7.68,3.01,7.67,6.72,0,1.78-.82,3.49-2.26,4.75s-3.4,1.97-5.44,1.97c-4.24,0-7.68-3.01-7.67-6.72,0-3.71,3.46-6.72,7.7-6.72Z"/>
      <path class="st8" d="M1019.78,211.93v-14.39"/>
      <path class="st8" d="M1012.36,191.12v11.5"/>
      <path class="st8" d="M1027.23,190.34v11.5"/>
      <path class="st8" d="M1012.43,197.91h12.76"/>
      <path class="st8" d="M1020.63,468.1v14.39"/>
      <path class="st8" d="M1028.05,488.91v-11.5"/>
      <path class="st8" d="M1013.18,489.69v-11.5"/>
      <path class="st8" d="M1027.98,482.12h-12.76"/>
      <path class="st2" d="M1077.62,374.99h19.05l-9.52,15.78,9.52,15.78h-19.05l9.52-15.78-9.52-15.78Z"/>
      <path class="st14" d="M1077.62,374.99h19.05l-9.52,15.78,9.52,15.78h-19.05l9.52-15.78-9.52-15.78Z"/>
      <path class="st2" d="M1087.14,400.21c-3.93,0-7.12-3.53-7.12-7.89s3.19-7.89,7.12-7.89,7.12,3.53,7.12,7.89-3.19,7.89-7.12,7.89Z"/>
      <path class="st14" d="M1087.14,400.21c-3.93,0-7.12-3.53-7.12-7.89s3.19-7.89,7.12-7.89,7.12,3.53,7.12,7.89-3.19,7.89-7.12,7.89Z"/>
      <path class="st2" d="M1177.25,210.81l20.43,12-20.39,12-.03-24Z"/>
      <path class="st14" d="M1177.25,210.81l20.43,12-20.39,12-.03-24Z"/>
      <path class="st8" d="M1197.69,210.81l.03,24"/>
      <path class="st12" d="M1197.69,210.81l.03,24"/>
      <path class="st2" d="M1177.24,446.03l20.43,12-20.39,12-.03-24Z"/>
      <path class="st12" d="M1177.24,446.03l20.43,12-20.39,12-.03-24Z"/>
      <path class="st8" d="M1197.68,446.03l.03,24"/>
      <path class="st12" d="M1197.68,446.03l.03,24"/>
      <path class="st8" d="M1240.41,318.51l-9.1.19"/>
      <path class="st8" d="M1219.81,325.47h11.5"/>
      <path class="st8" d="M1219.03,310.6h11.5"/>
      <path class="st2" d="M1369.82,232.86v-19.05l15.78,9.52,15.78-9.52v19.05l-15.78-9.52-15.78,9.52Z"/>
      <path class="st14" d="M1369.82,232.86v-19.05l15.78,9.52,15.78-9.52v19.05l-15.78-9.52-15.78,9.52Z"/>
      <path class="st1" d="M1393.49,223.33c0,3.93-3.53,7.12-7.89,7.12s-7.89-3.19-7.89-7.12,3.53-7.12,7.89-7.12,7.89,3.19,7.89,7.12Z"/>
      <path class="st18" d="M1393.49,223.33c0,3.93-3.53,7.12-7.89,7.12s-7.89-3.19-7.89-7.12,3.53-7.12,7.89-7.12,7.89,3.19,7.89,7.12Z"/>
      <path class="st2" d="M1363.61,467.56v-19.05l15.78,9.52,15.78-9.52v19.05l-15.78-9.52-15.78,9.52Z"/>
      <path class="st14" d="M1363.61,467.56v-19.05l15.78,9.52,15.78-9.52v19.05l-15.78-9.52-15.78,9.52Z"/>
      <path class="st2" d="M1387.28,458.03c0,3.93-3.53,7.12-7.89,7.12s-7.89-3.19-7.89-7.12,3.53-7.12,7.89-7.12,7.89,3.19,7.89,7.12Z"/>
      <path class="st14" d="M1387.28,458.03c0,3.93-3.53,7.12-7.89,7.12s-7.89-3.19-7.89-7.12,3.53-7.12,7.89-7.12,7.89,3.19,7.89,7.12Z"/>
      <path class="st7" d="M514.77,220.94h-69.62v142.33h-69.59"/>
      <path class="st12" d="M514.77,220.94h-69.62v142.33h-69.59"/>
      <path class="st3" d="M513.35,456.58h-68.91v-93.32h-68.88"/>
      <path class="st12" d="M513.35,456.58h-68.91v-93.32h-68.88"/>
      <path class="st5" d="M535.18,220.94h39.43v27.59"/>
      <path class="st12" d="M535.18,220.94h39.43v27.59"/>
      <path class="st8" d="M533.77,456.57h40.85v-21.98"/>
      <path class="st12" d="M533.77,456.57h40.85v-21.98"/>
      <path class="st8" d="M610.4,456.25h-35.78v-21.67"/>
      <path class="st12" d="M610.4,456.25h-35.78v-21.67"/>
      <path class="st8" d="M610.4,220.85h-35.78v27.69"/>
      <path class="st12" d="M610.4,220.85h-35.78v27.69"/>
      <path class="st8" d="M641.97,220.85h19.46v.31h19.46"/>
      <path class="st12" d="M641.97,220.85h19.46v.31h19.46"/>
      <path class="st8" d="M641.97,456.27h19.46v.31h19.46"/>
      <path class="st12" d="M641.97,456.27h19.46v.31h19.46"/>
      <path class="st0" d="M712.47,221.16h23.97v27.37h23.97"/>
      <path class="st12" d="M712.47,221.16h23.97v27.37h23.97"/>
      <path class="st5" d="M712.45,456.58h21.11v26.87h21.12"/>
      <path class="st12" d="M712.45,456.58h21.11v26.87h21.12"/>
      <path class="st5" d="M767.94,221.54h88.19v43.62"/>
      <path class="st11" d="M767.94,221.54h88.19v43.62"/>
      <path class="st8" d="M763.54,457.45h92.6v20.44"/>
      <path class="st11" d="M763.54,457.45h92.6v20.44"/>
      <path class="st8" d="M1274.93,482.5v-24.47h-232.79"/>
      <path class="st9" d="M1274.93,482.5v-24.47h-232.79"/>
      <path class="st8" d="M1177.25,458.03h97.67v24.47"/>
      <path class="st11" d="M1177.25,458.03h97.67v24.47"/>
      <path class="st0" d="M1042.99,222h266.65v29.07"/>
      <path class="st11" d="M1042.99,222h266.65v29.07"/>
      <path class="st8" d="M1177.25,458.03h-67.62v-15.34"/>
      <path class="st12" d="M1177.25,458.03h-67.62v-15.34"/>
      <path class="st12" d="M1197.66,458.03h52.85v-18.96"/>
      <path class="st12" d="M1369.82,223.33h-119.31v73.01"/>
      <path class="st8" d="M1395.17,458.03h71.5v-90.55"/>
      <path class="st11" d="M1395.17,458.03h71.5v-90.55"/>
      <path class="st8" d="M1401.38,223.33v.24h64.47v97.55"/>
      <path class="st11" d="M1401.38,223.33v.24h64.47v97.55"/>
      <path class="st7" d="M202.18,226.71c0,64.52,332.09,129.04,664.19,129.04"/>
      <path class="st16" d="M202.18,226.71c0,64.52,332.09,129.04,664.19,129.04"/>
      <path class="st5" d="M245.9,226.71c0,49.94,401.53,99.87,803.06,99.87"/>
      <path class="st10" d="M245.9,226.71c0,49.94,401.53,99.87,803.06,99.87"/>
      <path class="st3" d="M1043.37,326.74c28.42,0,49.28,8.16,56.84,16.31s1.85,16.31,3.69,16.31"/>
      <path class="st10" d="M1043.37,326.74c28.42,0,49.28,8.16,56.84,16.31s1.85,16.31,3.69,16.31"/>
      <path class="st8" d="M1006.39,196.87c-43.12,0-64.68,39.56-86.24,79.12-21.56,39.56-43.12,79.12-86.24,79.12"/>
      <path class="st16" d="M1006.39,196.87c-43.12,0-64.68,39.56-86.24,79.12-21.56,39.56-43.12,79.12-86.24,79.12"/>
      <path class="st2" d="M1454.07,319.14h139.21v52.31h-139.21v-52.31Z"/>
      <path class="st14" d="M1454.07,319.14h139.21v52.31h-139.21v-52.31Z"/>
      <path d="M1503.53,349.1l1.69.2c-.27.99-.77,1.76-1.48,2.31-.72.54-1.64.81-2.77.81-1.42,0-2.54-.43-3.38-1.3-.82-.88-1.23-2.1-1.23-3.67s.42-2.9,1.25-3.8c.84-.9,1.93-1.34,3.27-1.34s2.34.44,3.16,1.33c.82.88,1.23,2.11,1.23,3.7v.44h-7.22c.06,1.06.36,1.88.91,2.45.54.56,1.21.84,2.02.84.6,0,1.12-.16,1.55-.47.43-.32.77-.83,1.02-1.52ZM1498.14,346.45h5.41c-.07-.81-.28-1.42-.62-1.83-.52-.64-1.2-.95-2.03-.95-.75,0-1.39.26-1.91.77-.51.5-.79,1.17-.84,2.02ZM1507.28,352.21v-9.67h1.47v1.38c.71-1.06,1.73-1.59,3.08-1.59.58,0,1.12.1,1.61.31.49.21.85.48,1.09.83.25.33.42.73.52,1.2.06.3.09.83.09,1.59v5.95h-1.64v-5.89c0-.67-.07-1.16-.2-1.48-.12-.33-.35-.6-.67-.8-.32-.2-.7-.3-1.14-.3-.7,0-1.3.22-1.81.67-.5.44-.75,1.28-.75,2.52v5.28h-1.64ZM1517.34,353.01l1.59.23c.07.5.26.86.56,1.08.41.3.96.45,1.67.45.76,0,1.34-.15,1.75-.45.42-.3.7-.72.84-1.27.08-.33.12-1.04.11-2.11-.71.84-1.6,1.27-2.67,1.27-1.33,0-2.36-.48-3.09-1.44-.73-.96-1.09-2.11-1.09-3.45,0-.93.17-1.78.5-2.56.34-.78.83-1.38,1.45-1.8.64-.43,1.39-.64,2.25-.64,1.14,0,2.07.46,2.81,1.38v-1.16h1.52v8.36c0,1.51-.16,2.58-.47,3.2-.3.62-.79,1.12-1.45,1.48-.66.36-1.47.55-2.45.55-1.15,0-2.08-.26-2.8-.78-.71-.51-1.05-1.29-1.03-2.34ZM1518.7,347.2c0,1.27.25,2.2.75,2.78.51.58,1.15.88,1.91.88s1.38-.29,1.89-.86c.51-.58.77-1.49.77-2.73s-.27-2.08-.8-2.67c-.52-.6-1.15-.91-1.89-.91s-1.35.3-1.86.89c-.51.58-.77,1.46-.77,2.62ZM1528.03,340.75v-1.89h1.64v1.89h-1.64ZM1528.03,352.21v-9.67h1.64v9.67h-1.64ZM1532.17,352.21v-9.67h1.47v1.38c.71-1.06,1.73-1.59,3.08-1.59.58,0,1.12.1,1.61.31.49.21.85.48,1.09.83.25.33.42.73.52,1.2.06.3.09.83.09,1.59v5.95h-1.64v-5.89c0-.67-.07-1.16-.2-1.48-.12-.33-.35-.6-.67-.8-.32-.2-.7-.3-1.14-.3-.7,0-1.3.22-1.81.67-.5.44-.75,1.28-.75,2.52v5.28h-1.64ZM1549.18,349.1l1.69.2c-.27.99-.77,1.76-1.48,2.31-.72.54-1.64.81-2.77.81-1.42,0-2.54-.43-3.38-1.3-.82-.88-1.23-2.1-1.23-3.67s.42-2.9,1.25-3.8c.84-.9,1.93-1.34,3.27-1.34s2.34.44,3.16,1.33c.82.88,1.23,2.11,1.23,3.7v.44h-7.22c.06,1.06.36,1.88.91,2.45.54.56,1.21.84,2.02.84.6,0,1.12-.16,1.55-.47.43-.32.77-.83,1.02-1.52ZM1543.78,346.45h5.41c-.07-.81-.28-1.42-.62-1.83-.52-.64-1.2-.95-2.03-.95-.75,0-1.39.26-1.91.77-.51.5-.79,1.17-.84,2.02Z"/>
      <path class="st8" d="M1043,221.99l134.27.82"/>
      <path class="st11" d="M1043,221.99l134.27.82"/>
      <path class="st8" d="M1125.25,281.91l-.57-69.26"/>
      <path class="st12" d="M1124.97,281.91v-69.26"/>
      <path class="st8" d="M1177.26,458.03h-135.12"/>
      <path class="st11" d="M1177.26,458.03h-135.12"/>
      <path class="st8" d="M1197.65,458.03h165.95"/>
      <path class="st11" d="M1197.65,458.03h165.95"/>
      <path class="st4" d="M1197.66,222.8l172.16.54"/>
      <path class="st11" d="M1197.66,222.8l172.16.54"/>
      <path class="st8" d="M857.08,221.96l141.2.03"/>
      <path class="st11" d="M857.08,221.96l141.2.03"/>
      <path class="st8" d="M997.43,458.03l-143.97-.41"/>
      <path class="st11" d="M997.43,458.03l-143.97-.41"/>
      <path class="st8" d="M820.65,148.38h79.78v72.72h-79.78v-72.72Z"/>
      <path class="st8" d="M762.64,486.81l-1.1,129.13"/>
      <path class="st15" d="M762.64,486.81l-1.1,129.13"/>
      <path class="st8" d="M1132.37,297.69h12.5"/>
      <path class="st8" d="M1125.42,389.57l13.42.31"/>
      <path class="st8" d="M1244.06,420.06h-12.5"/>
      <path class="st2" d="M761.89,488.99h0c6.04,0,11.82,2.4,16.09,6.67,4.27,4.27,6.67,10.06,6.67,16.09v121.06s0,0,0,0h-45.51s0,0,0,0v-121.05c0-12.57,10.19-22.76,22.76-22.76Z"/>
      <path class="st14" d="M761.89,488.99h0c6.04,0,11.82,2.4,16.09,6.67,4.27,4.27,6.67,10.06,6.67,16.09v121.06s0,0,0,0h-45.51s0,0,0,0v-121.05c0-12.57,10.19-22.76,22.76-22.76Z"/>
      <path class="st8" d="M1220.73,426.83h11.5"/>
      <path class="st8" d="M1219.95,411.96h11.5"/>
      <path class="st8" d="M1227.52,426.76v-12.76"/>
      <path class="st5" d="M1006.33,342.21c-391.2,0-782.39-57.91-782.39-115.81"/>
      <path class="st10" d="M1006.33,342.21c-391.2,0-782.39-57.91-782.39-115.81"/>
      <path class="st8" d="M767.08,220.88l.72,22.11"/>
      <path class="st11" d="M767.44,220.88v22.11"/>
      <path class="st8" d="M762.11,456.57l-.03,21.32"/>
      <path class="st11" d="M762.11,456.57l-.03,21.32"/>
      <path class="st19" d="M764.9,280.14c1.26,0,2.35.48,3.27,1.44.93.95,1.39,2.14,1.39,3.58s-.46,2.69-1.39,3.67c-.93.97-2.05,1.45-3.38,1.45s-2.47-.47-3.38-1.42c-.91-.95-1.36-2.18-1.36-3.69s.53-2.8,1.58-3.77c.91-.84,1.99-1.27,3.27-1.27ZM764.76,280.65c-.86,0-1.56.32-2.08.97-.66.8-.98,1.97-.98,3.52s.34,2.8,1.02,3.66c.52.66,1.21.98,2.06.98.91,0,1.66-.35,2.25-1.06.59-.72.89-1.84.89-3.38,0-1.66-.32-2.9-.97-3.72-.53-.65-1.26-.97-2.19-.97ZM774.12,286.21l1.62,2.34c.4.58.68.93.84,1.05.18.11.41.18.69.2v.25h-3.09v-.25c.21,0,.38-.05.5-.16.08-.06.12-.15.12-.27,0-.1-.15-.38-.45-.83l-.95-1.39-1.06,1.39c-.32.44-.48.7-.48.78,0,.11.05.22.16.31.11.09.28.15.5.16v.25h-2.14v-.25c.17-.03.31-.09.44-.19.19-.14.49-.49.92-1.06l1.38-1.83-1.25-1.8c-.35-.51-.63-.83-.83-.97-.19-.14-.43-.2-.72-.2v-.27h3.09v.27c-.2,0-.34.04-.42.11-.07.06-.11.15-.11.27s.08.29.25.53c.05.07.13.19.23.36l.47.73.53-.73c.34-.48.52-.78.52-.91,0-.09-.04-.18-.12-.25-.07-.07-.2-.11-.39-.11v-.27h2.22v.27c-.23.02-.43.09-.61.2"/>
      <path class="st8" d="M728.01,521.22h67.78v37.17h-67.78v-37.17Z"/>
      <path class="st19" d="M751.87,535.91v3.81h1.77c.41,0,.7-.09.89-.27s.31-.53.38-1.06h.27v3.28h-.27c0-.38-.05-.65-.14-.83s-.22-.31-.39-.39c-.17-.09-.41-.14-.73-.14h-1.77v3.05c0,.49.03.81.09.97.04.12.14.23.3.31.21.11.43.17.66.17h.36v.27h-4.17v-.27h.34c.41,0,.7-.11.88-.34.11-.16.17-.53.17-1.11v-6.27c0-.49-.03-.81-.09-.97-.05-.12-.15-.23-.3-.31-.2-.11-.42-.17-.66-.17h-.34v-.27h7.22l.09,2.12h-.25c-.12-.45-.27-.78-.44-.98-.16-.22-.36-.38-.61-.47-.24-.09-.61-.14-1.11-.14h-2.14ZM763.22,538.52v3.98c0,.75.02,1.21.05,1.39.04.17.1.29.17.36.08.06.18.09.28.09.15,0,.31-.04.5-.12l.11.25-1.97.81h-.31v-1.39c-.57.61-1.01,1-1.3,1.16-.29.16-.6.23-.94.23-.36,0-.68-.1-.95-.31-.27-.22-.46-.49-.56-.83-.1-.33-.16-.81-.16-1.42v-2.92c0-.31-.04-.53-.11-.64-.06-.12-.16-.22-.3-.28-.12-.06-.36-.09-.7-.09v-.27h2.3v4.39c0,.61.1,1.02.31,1.2.22.19.48.28.78.28.2,0,.43-.06.69-.19.26-.12.57-.37.94-.73v-3.72c0-.36-.07-.61-.22-.75-.14-.14-.42-.21-.84-.22v-.27h2.23ZM765.91,540.99c-.01.98.22,1.74.7,2.3.48.55,1.04.83,1.69.83.43,0,.8-.11,1.11-.34.32-.24.59-.65.81-1.22l.22.14c-.1.66-.4,1.26-.88,1.8-.48.53-1.08.8-1.81.8-.79,0-1.47-.31-2.03-.92-.55-.61-.83-1.44-.83-2.47,0-1.12.29-2,.86-2.62.57-.62,1.3-.94,2.17-.94.73,0,1.33.24,1.8.73.48.48.72,1.12.72,1.92h-4.53ZM765.91,540.58h3.03c-.02-.42-.07-.71-.16-.89-.11-.27-.29-.48-.53-.62-.23-.16-.47-.23-.73-.23-.4,0-.75.16-1.06.47-.31.3-.49.73-.55,1.28ZM773.57,534.91v8.69c0,.42.03.69.08.83.06.12.16.22.28.3s.35.11.69.11v.25h-3.2v-.25c.3,0,.51-.03.61-.09.11-.06.2-.17.27-.31s.09-.42.09-.83v-5.95c0-.74-.02-1.19-.06-1.36-.03-.17-.08-.28-.16-.34-.07-.06-.17-.09-.28-.09-.12,0-.28.04-.47.11l-.12-.25,1.95-.8h.33Z"/>
      <path class="st1" d="M128.12,143.59l20.43,12-20.39,12-.03-24Z"/>
      <path class="st18" d="M128.12,143.59l20.43,12-20.39,12-.03-24Z"/>
      <path class="st2" d="M137.03,176.81l12-21.62,12,21.59-24,.03Z"/>
      <path class="st14" d="M137.03,176.81l12-21.62,12,21.59-24,.03Z"/>
      <path class="st8" d="M154.61,156.36h3.84"/>
      <path class="st12" d="M154.61,156.36h3.84"/>
      <path class="st8" d="M158.46,156.67l2.77-8.35"/>
      <path class="st12" d="M158.46,156.67l2.77-8.35"/>
      <path class="st8" d="M161.24,149.31l2.99,14.11"/>
      <path class="st12" d="M161.24,149.31l2.99,14.11"/>
      <path class="st8" d="M165.25,164.11l3.84-14.74"/>
      <path class="st12" d="M165.25,164.11l3.84-14.74"/>
      <path class="st8" d="M169.08,149.38l3.84,14.74"/>
      <path class="st12" d="M169.08,149.38l3.84,14.74"/>
      <path class="st1" d="M146.92,149.82c4.24,0,7.68,3.01,7.67,6.72,0,1.78-.82,3.49-2.26,4.75-1.44,1.26-3.4,1.97-5.44,1.97-4.24,0-7.68-3.01-7.67-6.72s3.46-6.72,7.7-6.72Z"/>
      <path class="st18" d="M146.92,149.82c4.24,0,7.68,3.01,7.67,6.72,0,1.78-.82,3.49-2.26,4.75-1.44,1.26-3.4,1.97-5.44,1.97-4.24,0-7.68-3.01-7.67-6.72s3.46-6.72,7.7-6.72Z"/>
      <path class="st5" d="M149.03,176.8v22.33h39.4"/>
      <path class="st12" d="M149.03,176.8v22.33h39.4"/>
      <path class="st8" d="M25.62,132.34h92.6v54.93H25.62v-54.93Z"/>
      <path class="st8" d="M1143.99,289.91h11.5"/>
      <path class="st15" d="M1155.48,289.91"/>
      <path class="st15" d="M1143.99,289.91"/>
      <path class="st8" d="M1143.67,302.76h11.5"/>
      <path class="st15" d="M1155.17,302.76"/>
      <path class="st15" d="M1143.67,302.76"/>
      <path class="st1" d="M1113.24,263.91l12-20.43,12,20.39-24,.03Z"/>
      <path class="st17" d="M1113.24,263.91l12-20.43,12,20.39-24,.03Z"/>
      <path class="st8" d="M1112.77,243.05l24.5-.5"/>
      <path class="st17" d="M1112.77,243.05l24.5-.5"/>
      <path class="st2" d="M1121.65,422.26l-12,20.43-12-20.39,24-.03Z"/>
      <path class="st12" d="M1121.65,422.26l-12,20.43-12-20.39,24-.03Z"/>
      <path class="st8" d="M1097.39,443.01l24.5-.5"/>
      <path class="st12" d="M1097.39,443.01l24.5-.5"/>
      <path class="st8" d="M1087.14,406.55v7.86h22.52v7.86"/>
      <path class="st12" d="M1087.14,406.55v7.86h22.52v7.86"/>
      <path class="st8" d="M1117.75,406.4v7.93h-8.09v7.94"/>
      <path class="st12" d="M1117.75,406.4v7.93h-8.09v7.94"/>
      <path class="st3" d="M1087.14,374.99v-15.1h30.61v14.94"/>
      <path class="st12" d="M1087.14,374.99v-15.1h30.61v14.94"/>
      <path class="st8" d="M1044.85,326.73c40.2,0,80.41-6.63,80.41-13.26"/>
      <path class="st16" d="M1044.85,326.73c40.2,0,80.41-6.63,80.41-13.26"/>
      <path class="st0" d="M1004.32,342.53c72.71,0,145.42-16.76,145.42-33.51"/>
      <path class="st10" d="M1004.32,342.53c72.71,0,145.42-16.76,145.42-33.51"/>
      <path class="st5" d="M1009.39,343.06c84.22,0,142.84-15.73,168.44-31.06s18.16-30.25,23.51-31.06c5.36-.81,23.51,12.51,23.51,25.01"/>
      <path class="st16" d="M1010.09,343.06c84.22,0,142.84-15.73,168.44-31.06s18.16-30.25,23.51-31.06c5.36-.81,23.51,12.51,23.51,25.01"/>
      <path class="st8" d="M1050.63,342c87.92,0,175.84,32.66,175.84,65.32"/>
      <path class="st16" d="M1050.63,342c87.92,0,175.84,32.66,175.84,65.32"/>
      <path class="st8" d="M853.11,355.76c50.66,0,81.9,31.85,101.33,63.7,19.43,31.85,27.05,63.7,54.1,63.7"/>
      <path class="st16" d="M853.11,355.76c50.66,0,81.9,31.85,101.33,63.7,19.43,31.85,27.05,63.7,54.1,63.7"/>
      <path class="st8" d="M1124.74,321.45h-115.4v-54.93h115.4"/>
      <path class="st8" d="M1477.83,414.41h38.24"/>
      <path class="st12" d="M1466.29,277.97v16.42h-51.69v76.05"/>
      <path class="st8" d="M1466.3,394.38h30.65v2.77"/>
      <path class="st12" d="M1466.3,394.38h30.65v2.77"/>
    </g>
  </g>
</svg>